<?xml version="1.0" encoding="UTF-8"?>
<!DOCTYPE svg PUBLIC "-//W3C//DTD SVG 1.1//EN" "http://www.w3.org/Graphics/SVG/1.1/DTD/svg11.dtd">
<!-- Creator: CorelDRAW X7 -->
<svg xmlns="http://www.w3.org/2000/svg" xml:space="preserve" width="12.6522mm" height="12.6522mm" version="1.1" style="shape-rendering:geometricPrecision; text-rendering:geometricPrecision; image-rendering:optimizeQuality; fill-rule:evenodd; clip-rule:evenodd"
viewBox="0 0 1493 1493"
 xmlns:xlink="http://www.w3.org/1999/xlink">
 <defs>
  <style type="text/css">
   <![CDATA[
    .fil0 {fill:#FEFEFE}
   ]]>
  </style>
 </defs>
 <g id="Capa_x0020_1">
  <metadata id="CorelCorpID_0Corel-Layer"/>
  <path class="fil0" d="M747 0c412,0 746,334 746,747 0,412 -334,746 -746,746 -413,0 -747,-334 -747,-746 0,-413 334,-747 747,-747zm0 133c339,0 614,274 614,614 0,339 -275,614 -614,614 -340,0 -614,-275 -614,-614 0,-340 274,-614 614,-614z"/>
  <polygon class="fil0" points="661,260 832,260 832,661 1234,661 1234,832 832,832 832,1234 661,1234 661,832 260,832 260,661 661,661 "/>
 </g>
</svg>
