<?xml version="1.0" encoding="UTF-8"?>
<!DOCTYPE svg PUBLIC "-//W3C//DTD SVG 1.1//EN" "http://www.w3.org/Graphics/SVG/1.1/DTD/svg11.dtd">
<!-- Creator: CorelDRAW X7 -->
<svg xmlns="http://www.w3.org/2000/svg" xml:space="preserve" width="10mm" height="10mm" version="1.1" style="shape-rendering:geometricPrecision; text-rendering:geometricPrecision; image-rendering:optimizeQuality; fill-rule:evenodd; clip-rule:evenodd"
viewBox="0 0 2236 2236"
 xmlns:xlink="http://www.w3.org/1999/xlink">
 <defs>
  <style type="text/css">
   <![CDATA[
    .fil0 {fill:#FEFEFE}
   ]]>
  </style>
 </defs>
 <g id="Capa_x0020_1">
  <metadata id="CorelCorpID_0Corel-Layer"/>
  <path class="fil0" d="M2236 811l-2236 1c47,342 130,732 199,1071 89,442 391,344 909,344 176,0 447,16 611,-3 188,-22 279,-142 316,-324 67,-336 160,-748 201,-1089zm-1409 -638c-214,9 -270,7 -347,184 -47,107 -137,287 -165,392 160,0 98,30 204,-202 42,-92 73,-178 133,-253 169,-22 675,-22 851,-8 141,10 151,119 202,235 122,277 65,228 217,228 -23,-94 -129,-317 -172,-405 -91,-192 -158,-166 -394,-169 -49,-133 -91,-177 -267,-175 -180,2 -183,66 -262,173zm351 1088l389 0 -2 -307 -382 1 -5 306zm-509 0l27 0 340 0 -2 -305 -359 -1 -6 306zm510 416l388 0 -1 -273 -385 1 -2 272zm0 404l388 0 0 -19 -2 -242 -383 0 -3 261zm531 -823l303 3 51 -305 -350 -1 -4 303zm-1040 419l366 0 -1 -271 -363 -1 -2 272zm-443 -417l299 0 -1 -304 -349 -1 51 305zm443 821l366 0 -1 -260 -361 -1 -4 261zm1042 -405l212 0 57 -271 -269 1 0 270zm-1404 0l209 1 9 -271 -268 -2 50 272zm215 401l3 -71 0 -113 -2 -71 -184 -2c9,137 54,235 183,257zm1188 -1c131,-19 173,-117 186,-256l-184 1 -2 255z"/>
 </g>
</svg>
