<?xml version="1.0" encoding="UTF-8"?>
<!DOCTYPE svg PUBLIC "-//W3C//DTD SVG 1.1//EN" "http://www.w3.org/Graphics/SVG/1.1/DTD/svg11.dtd">
<!-- Creator: CorelDRAW X7 -->
<svg xmlns="http://www.w3.org/2000/svg" xml:space="preserve" width="2.7083mm" height="2.6949mm" version="1.1" style="shape-rendering:geometricPrecision; text-rendering:geometricPrecision; image-rendering:optimizeQuality; fill-rule:evenodd; clip-rule:evenodd"
viewBox="0 0 159 159"
 xmlns:xlink="http://www.w3.org/1999/xlink">
 <defs>
  <style type="text/css">
   <![CDATA[
    .fil0 {fill:#ED2F59}
   ]]>
  </style>
 </defs>
 <g id="Capa_x0020_1">
  <metadata id="CorelCorpID_0Corel-Layer"/>
  <path class="fil0" d="M159 58l-159 0c3,24 9,51 14,75 7,32 28,25 65,25 12,0 32,1 43,0 14,-2 20,-10 23,-23 5,-24 11,-53 14,-77zm-100 -46c-15,1 -19,1 -25,13 -3,8 -10,21 -12,28 12,0 7,2 15,-14 3,-7 5,-13 9,-18 12,-2 49,-2 61,-1 10,1 11,9 14,17 9,20 5,16 16,16 -2,-7 -9,-22 -12,-29 -7,-13 -12,-11 -28,-12 -4,-9 -7,-12 -19,-12 -13,0 -13,5 -19,12zm25 77l28 0 -1 -21 -27 0 0 21zm-36 0l2 0 24 0 0 -21 -26 0 0 21zm36 30l28 0 0 -19 -28 0 0 19zm0 29l28 0 0 -2 -1 -17 -27 0 0 19zm38 -59l21 0 4 -21 -25 0 0 21zm-74 30l26 0 0 -19 -26 0 0 19zm-32 -30l21 0 0 -21 -24 0 3 21zm32 59l26 0 0 -19 -26 0 0 19zm74 -29l15 0 4 -19 -19 0 0 19zm-100 0l15 0 0 -19 -19 0 4 19zm15 28l0 -5 0 -8 0 -5 -13 0c1,10 4,17 13,18zm85 0c9,-1 12,-8 13,-18l-13 0 0 18z"/>
 </g>
</svg>
