<?xml version="1.0" encoding="UTF-8"?>
<!DOCTYPE svg PUBLIC "-//W3C//DTD SVG 1.1//EN" "http://www.w3.org/Graphics/SVG/1.1/DTD/svg11.dtd">
<!-- Creator: CorelDRAW X7 -->
<svg xmlns="http://www.w3.org/2000/svg" xml:space="preserve" width="10mm" height="10mm" version="1.1" style="shape-rendering:geometricPrecision; text-rendering:geometricPrecision; image-rendering:optimizeQuality; fill-rule:evenodd; clip-rule:evenodd"
viewBox="0 0 350 350"
 xmlns:xlink="http://www.w3.org/1999/xlink">
 <defs>
  <style type="text/css">
   <![CDATA[
    .fil0 {fill:none}
    .fil1 {fill:#1080A7}
   ]]>
  </style>
 </defs>
 <g id="Capa_x0020_1">
  <metadata id="CorelCorpID_0Corel-Layer"/>
  <rect class="fil0" width="350" height="350" rx="175" ry="116"/>
  <path class="fil1" d="M119 111l20 -1 8 164 -21 1 -7 -164zm45 -1l21 0 0 165 -21 0 0 -165zm67 1l-21 -1 -8 164 21 1 8 -164zm-146 -24l180 0 -17 181c-2,18 -15,33 -34,33l-79 0c-19,0 -32,-15 -34,-33l-16 -181zm-11 -25l202 0 0 17 -202 0 0 -17zm91 -5l20 0 0 -8 -20 0 0 8z"/>
 </g>
</svg>
