<?xml version="1.0" encoding="UTF-8"?>
<!DOCTYPE svg PUBLIC "-//W3C//DTD SVG 1.1//EN" "http://www.w3.org/Graphics/SVG/1.1/DTD/svg11.dtd">
<!-- Creator: CorelDRAW X7 -->
<svg xmlns="http://www.w3.org/2000/svg" xml:space="preserve" width="10mm" height="10mm" version="1.1" style="shape-rendering:geometricPrecision; text-rendering:geometricPrecision; image-rendering:optimizeQuality; fill-rule:evenodd; clip-rule:evenodd"
viewBox="0 0 321 321"
 xmlns:xlink="http://www.w3.org/1999/xlink">
 <defs>
  <style type="text/css">
   <![CDATA[
    .fil0 {fill:none}
    .fil1 {fill:#1080A7}
   ]]>
  </style>
 </defs>
 <g id="Capa_x0020_1">
  <metadata id="CorelCorpID_0Corel-Layer"/>
  <rect class="fil0" width="321" height="321" rx="161" ry="107"/>
  <path class="fil1" d="M133 212c52,-16 53,-29 91,-76 6,-6 13,-14 19,-22l-32 -29c-7,7 -13,16 -19,23 -7,9 -46,54 -49,61 -3,8 -9,35 -10,43zm113 -102c2,-2 3,-4 4,-6 -6,-7 -23,-22 -31,-26 -2,1 -4,3 -6,4l33 28zm-22 -39c5,7 24,23 31,26 5,-3 13,-11 15,-17 6,-14 -19,-33 -31,-27 -5,3 -13,13 -15,18zm-165 22l120 0 0 12 -107 0 0 146 156 0 0 -95 13 0 0 108 -182 0 0 -171zm22 120l47 0 0 10 -47 0 0 -10z"/>
 </g>
</svg>
