<?xml version="1.0" encoding="UTF-8"?>
<!DOCTYPE svg PUBLIC "-//W3C//DTD SVG 1.1//EN" "http://www.w3.org/Graphics/SVG/1.1/DTD/svg11.dtd">
<!-- Creator: CorelDRAW X7 -->
<svg xmlns="http://www.w3.org/2000/svg" xml:space="preserve" width="9.6238mm" height="6.8209mm" version="1.1" style="shape-rendering:geometricPrecision; text-rendering:geometricPrecision; image-rendering:optimizeQuality; fill-rule:evenodd; clip-rule:evenodd"
viewBox="0 0 980 695"
 xmlns:xlink="http://www.w3.org/1999/xlink">
 <defs>
  <style type="text/css">
   <![CDATA[
    .fil0 {fill:#FEFEFE}
   ]]>
  </style>
 </defs>
 <g id="Capa_x0020_1">
  <metadata id="CorelCorpID_0Corel-Layer"/>
  <path class="fil0" d="M51 8c-64,23 -50,85 -50,159l0 415c0,85 15,112 103,111 94,0 797,6 827,-4 61,-22 48,-90 48,-160l0 -414c0,-86 -14,-112 -103,-112 -105,1 -785,-10 -825,5l0 0zm14 36c-1,7 86,90 96,100 37,37 69,69 105,106l155 154c81,81 112,28 187,-48 19,-19 308,-304 308,-312 -20,-5 -807,-6 -851,0l0 0zm-2 610l855 0c-7,-16 -3,-9 -15,-21l-119 -120c-24,-23 -45,-43 -68,-67 -18,-18 -52,-56 -70,-68 -37,29 -81,104 -154,105 -76,1 -120,-75 -158,-105 -17,11 -50,48 -67,66 -25,25 -193,184 -204,210zm610 -304l266 267 2 -18 0 -502 -1 -15 -267 268zm-633 266l268 -266 -268 -268 0 534 0 0z"/>
 </g>
</svg>
