<?xml version="1.0" encoding="UTF-8"?>
<!DOCTYPE svg PUBLIC "-//W3C//DTD SVG 1.1//EN" "http://www.w3.org/Graphics/SVG/1.1/DTD/svg11.dtd">
<!-- Creator: CorelDRAW X7 -->
<svg xmlns="http://www.w3.org/2000/svg" xml:space="preserve" width="6.441mm" height="4.3458mm" version="1.1" style="shape-rendering:geometricPrecision; text-rendering:geometricPrecision; image-rendering:optimizeQuality; fill-rule:evenodd; clip-rule:evenodd"
viewBox="0 0 9317 6286"
 xmlns:xlink="http://www.w3.org/1999/xlink">
 <defs>
  <style type="text/css">
   <![CDATA[
    .fil0 {fill:#486D97}
   ]]>
  </style>
 </defs>
 <g id="Capa_x0020_1">
  <metadata id="CorelCorpID_0Corel-Layer"/>
  <path class="fil0" d="M9289 597c-188,-16 -643,372 -805,498l-1887 1409c-126,93 -271,188 -385,288l1700 2107c30,40 280,290 125,300 -70,4 -108,-57 -151,-101 -268,-272 -728,-650 -1005,-930l-704 -650c-90,-92 -358,-350 -453,-395 -53,67 -360,269 -453,329 -425,275 -751,277 -1178,1 -92,-59 -399,-264 -453,-330 -95,45 -352,293 -441,383 -267,269 -742,662 -1017,943l-582 537c-59,59 -81,71 -144,136 -25,26 -40,49 -78,65 -94,38 -58,15 -91,-10 -37,-92 117,-215 174,-295 175,-244 640,-769 842,-1035 52,-69 60,-94 123,-160l721 -916c-200,-92 -1986,-1465 -2286,-1678 -210,-149 -643,-542 -817,-483 -73,172 -27,2283 -30,2661 -3,383 -46,2460 38,2651 164,368 465,360 900,361 409,1 820,5 1228,1l4937 -1c408,4 821,4 1229,0 474,-4 735,48 919,-340 83,-176 39,-3351 42,-3995 2,-295 30,-1126 -18,-1351zm-9138 -509c-50,310 229,391 409,502l3441 2056c789,471 1103,176 1925,-339 724,-453 1586,-917 2286,-1364 188,-120 388,-225 578,-345 184,-115 473,-196 424,-511 -171,-129 -797,-76 -1069,-75l-5764 2c-378,2 -760,2 -1139,-2 -277,-2 -915,-55 -1091,76z"/>
 </g>
</svg>
