<?xml version="1.0" encoding="UTF-8"?>
<!DOCTYPE svg PUBLIC "-//W3C//DTD SVG 1.1//EN" "http://www.w3.org/Graphics/SVG/1.1/DTD/svg11.dtd">
<!-- Creator: CorelDRAW X7 -->
<svg xmlns="http://www.w3.org/2000/svg" xml:space="preserve" width="9.6252mm" height="6.8214mm" version="1.1" style="shape-rendering:geometricPrecision; text-rendering:geometricPrecision; image-rendering:optimizeQuality; fill-rule:evenodd; clip-rule:evenodd"
viewBox="0 0 2322 1646"
 xmlns:xlink="http://www.w3.org/1999/xlink">
 <defs>
  <style type="text/css">
   <![CDATA[
    .fil0 {fill:#373435}
   ]]>
  </style>
 </defs>
 <g id="Capa_x0020_1">
  <metadata id="CorelCorpID_0Corel-Layer"/>
  <path class="fil0" d="M121 18c-152,55 -118,203 -118,378l0 982c0,203 35,265 243,264 224,-1 1889,14 1959,-11 146,-50 114,-212 114,-377l0 -982c1,-203 -34,-266 -243,-265 -249,1 -1860,-23 -1955,11zm32 87c-1,15 204,213 229,237 86,86 163,163 248,249l367 367c191,191 265,64 442,-114 46,-47 731,-722 730,-739 -47,-13 -1911,-16 -2016,0zm-4 1443l2025 0c-16,-36 -7,-20 -34,-48l-284 -284c-56,-56 -105,-104 -161,-160 -42,-42 -123,-133 -165,-161 -87,70 -191,246 -364,249 -180,3 -285,-178 -374,-249 -41,27 -119,115 -160,156 -59,59 -457,436 -483,497zm1446 -719l630 632 3 -42 0 -1189 -1 -36 -632 635zm-1501 629l635 -629 -634 -634 -1 1263z"/>
 </g>
</svg>
