<?xml version="1.0" encoding="UTF-8"?>
<!DOCTYPE svg PUBLIC "-//W3C//DTD SVG 1.1//EN" "http://www.w3.org/Graphics/SVG/1.1/DTD/svg11.dtd">
<!-- Creator: CorelDRAW X7 -->
<svg xmlns="http://www.w3.org/2000/svg" xml:space="preserve" width="7.3612mm" height="6.9015mm" version="1.1" style="shape-rendering:geometricPrecision; text-rendering:geometricPrecision; image-rendering:optimizeQuality; fill-rule:evenodd; clip-rule:evenodd"
viewBox="0 0 3461 3245"
 xmlns:xlink="http://www.w3.org/1999/xlink">
 <defs>
  <style type="text/css">
   <![CDATA[
    .fil0 {fill:#96989A}
   ]]>
  </style>
 </defs>
 <g id="Capa_x0020_1">
  <metadata id="CorelCorpID_0Corel-Layer"/>
  <g id="_2547892587312">
   <path class="fil0" d="M1166 2347l-82 898 923 -1059 -722 -1104 -78 821c-818,-128 -1105,-816 -538,-1156 195,-117 297,-133 530,-192l9 -103c-340,-8 -1232,304 -1207,903 19,479 631,871 1165,992z"/>
   <path class="fil0" d="M1658 531l405 645 85 -562c509,131 1085,570 732,1029 -40,51 -120,122 -173,153 -68,39 -136,75 -211,107 42,55 225,181 295,237 89,70 101,155 319,-16 746,-587 174,-1230 -521,-1507l-320 -102 -109 -22 70 -493 -572 531z"/>
  </g>
 </g>
</svg>
