<?xml version="1.0" encoding="UTF-8"?>
<!DOCTYPE svg PUBLIC "-//W3C//DTD SVG 1.1//EN" "http://www.w3.org/Graphics/SVG/1.1/DTD/svg11.dtd">
<!-- Creator: CorelDRAW X7 -->
<svg xmlns="http://www.w3.org/2000/svg" xml:space="preserve" width="7.8315mm" height="7.0471mm" version="1.1" style="shape-rendering:geometricPrecision; text-rendering:geometricPrecision; image-rendering:optimizeQuality; fill-rule:evenodd; clip-rule:evenodd"
viewBox="0 0 3198 2878"
 xmlns:xlink="http://www.w3.org/1999/xlink">
 <defs>
  <style type="text/css">
   <![CDATA[
    .fil0 {fill:url(#id0)}
   ]]>
  </style>
  <radialGradient id="id0" gradientUnits="userSpaceOnUse" gradientTransform="matrix(0.446264 1.71813 -1.71813 0.446265 2649 -2968)" cx="2014.96" cy="892.17" r="1599.18" fx="2014.96" fy="892.17">
   <stop offset="0" style="stop-opacity:1; stop-color:#F7ADAF"/>
   <stop offset="0.329412" style="stop-opacity:1; stop-color:#DA60A3"/>
   <stop offset="1" style="stop-opacity:1; stop-color:#C72F90"/>
  </radialGradient>
 </defs>
 <g id="Capa_x0020_1">
  <metadata id="CorelCorpID_0Corel-Layer"/>
  <path class="fil0" d="M2900 238c-44,-84 -270,-181 -371,-207 -137,-37 -300,-45 -472,-1 -184,48 -326,143 -441,262 -92,95 -150,201 -191,317 -3,7 -7,22 -8,25l-19 33c-85,-73 -267,-126 -404,-138 -513,-43 -944,325 -990,810 -34,357 158,669 426,831 269,162 247,171 570,311 42,18 159,75 198,81 25,16 28,13 56,23l410 140c159,48 318,88 487,130 147,36 111,41 200,-72 144,-184 440,-631 527,-833 33,-75 76,-141 109,-220 106,-259 249,-683 202,-980 -27,-170 -83,-291 -191,-422 -24,-29 -62,-77 -98,-90z"/>
 </g>
</svg>
