<?xml version="1.0" encoding="UTF-8"?>
<!DOCTYPE svg PUBLIC "-//W3C//DTD SVG 1.1//EN" "http://www.w3.org/Graphics/SVG/1.1/DTD/svg11.dtd">
<!-- Creator: CorelDRAW X7 -->
<svg xmlns="http://www.w3.org/2000/svg" xml:space="preserve" width="8.8358mm" height="8.8358mm" version="1.1" style="shape-rendering:geometricPrecision; text-rendering:geometricPrecision; image-rendering:optimizeQuality; fill-rule:evenodd; clip-rule:evenodd"
viewBox="0 0 884 884"
 xmlns:xlink="http://www.w3.org/1999/xlink">
 <defs>
  <style type="text/css">
   <![CDATA[
    .fil0 {fill:#FEFEFE;fill-rule:nonzero}
   ]]>
  </style>
 </defs>
 <g id="Capa_x0020_1">
  <metadata id="CorelCorpID_0Corel-Layer"/>
  <path id="instagram.svg" class="fil0" d="M247 0l390 0c68,0 129,28 174,72 45,45 73,107 73,175l0 390c0,68 -28,129 -73,174 -45,45 -106,73 -174,73l-390 0c-68,0 -130,-28 -175,-73 -44,-45 -72,-106 -72,-174l0 -390c0,-68 28,-130 72,-175 45,-44 107,-72 175,-72zm390 74l-390 0c-48,0 -91,20 -122,51 -31,31 -51,74 -51,122l0 390c0,47 20,90 51,122 31,31 74,51 122,51l390 0c47,0 91,-20 122,-51 31,-32 51,-75 51,-122l0 -390c0,-48 -20,-91 -51,-122 -31,-31 -75,-51 -122,-51zm-195 161c57,0 109,23 146,61 38,37 61,89 61,146 0,57 -23,109 -61,146 -37,38 -89,61 -146,61 -57,0 -109,-23 -146,-61 -38,-37 -61,-89 -61,-146 0,-57 23,-109 61,-146 37,-38 89,-61 146,-61zm94 113c-24,-25 -58,-39 -94,-39 -37,0 -70,14 -94,39 -25,24 -39,57 -39,94 0,36 14,70 39,94 24,24 57,39 94,39 36,0 70,-15 94,-39 24,-24 39,-58 39,-94 0,-37 -15,-70 -39,-94zm84 -201l0 0c29,0 53,24 53,53l0 0c0,29 -24,53 -53,53l0 0c-30,0 -54,-24 -54,-53l0 0c0,-29 24,-53 54,-53z"/>
 </g>
</svg>
