<?xml version="1.0" encoding="UTF-8"?>
<!DOCTYPE svg PUBLIC "-//W3C//DTD SVG 1.1//EN" "http://www.w3.org/Graphics/SVG/1.1/DTD/svg11.dtd">
<!-- Creator: CorelDRAW X7 -->
<svg xmlns="http://www.w3.org/2000/svg" xml:space="preserve" width="5.4979mm" height="6.0283mm" version="1.1" style="shape-rendering:geometricPrecision; text-rendering:geometricPrecision; image-rendering:optimizeQuality; fill-rule:evenodd; clip-rule:evenodd"
viewBox="0 0 6648 7289"
 xmlns:xlink="http://www.w3.org/1999/xlink">
 <defs>
  <style type="text/css">
   <![CDATA[
    .fil0 {fill:#486D97;fill-rule:nonzero}
   ]]>
  </style>
 </defs>
 <g id="Capa_x0020_1">
  <metadata id="CorelCorpID_0Corel-Layer"/>
  <path class="fil0" d="M1857 0l2934 0c511,0 975,229 1311,598 337,369 546,878 546,1438l0 3217c0,560 -209,1069 -546,1438 -336,369 -800,598 -1311,598l-2934 0c-511,0 -975,-229 -1312,-598 -336,-369 -545,-878 -545,-1438l0 -3217c0,-560 209,-1069 545,-1438 337,-369 801,-598 1312,-598zm2934 611l-2934 0c-357,0 -682,160 -918,419 -235,258 -382,614 -382,1006l0 3217c0,392 147,748 382,1006 236,258 561,419 918,419l2934 0c357,0 682,-161 917,-419 236,-258 383,-614 383,-1006l0 -3217c0,-392 -147,-748 -383,-1006 -235,-259 -560,-419 -917,-419zm-1467 1323c429,0 819,193 1102,502 282,310 458,738 458,1209 0,470 -176,898 -458,1208 -283,309 -673,502 -1102,502 -429,0 -819,-193 -1102,-502 -282,-310 -458,-738 -458,-1208 0,-471 176,-899 458,-1209 283,-309 673,-502 1102,-502zm708 934c-182,-199 -433,-323 -708,-323 -276,0 -526,124 -708,323 -182,200 -295,474 -295,777 0,301 113,576 295,776 182,199 432,323 708,323 275,0 526,-124 708,-323 182,-200 294,-475 294,-776 0,-303 -112,-577 -294,-777zm629 -1657l0 0c220,0 400,197 400,438l0 0c0,241 -180,439 -400,439l0 0c-220,0 -400,-198 -400,-439l0 0c0,-241 180,-438 400,-438z"/>
 </g>
</svg>
