<?xml version="1.0" encoding="UTF-8"?>
<!DOCTYPE svg PUBLIC "-//W3C//DTD SVG 1.1//EN" "http://www.w3.org/Graphics/SVG/1.1/DTD/svg11.dtd">
<!-- Creator: CorelDRAW X7 -->
<svg xmlns="http://www.w3.org/2000/svg" xml:space="preserve" width="8.8361mm" height="8.8358mm" version="1.1" style="shape-rendering:geometricPrecision; text-rendering:geometricPrecision; image-rendering:optimizeQuality; fill-rule:evenodd; clip-rule:evenodd"
viewBox="0 0 2249 2249"
 xmlns:xlink="http://www.w3.org/1999/xlink">
 <defs>
  <style type="text/css">
   <![CDATA[
    .fil0 {fill:#373435;fill-rule:nonzero}
   ]]>
  </style>
 </defs>
 <g id="Capa_x0020_1">
  <metadata id="CorelCorpID_0Corel-Layer"/>
  <path class="fil0" d="M628 0l993 0c172,0 329,71 443,184 114,114 185,271 185,444l0 992c0,173 -71,330 -185,444 -114,114 -271,185 -443,185l-993 0c-173,0 -330,-71 -444,-185 -113,-114 -184,-271 -184,-444l0 -992c0,-173 71,-330 184,-444 114,-113 271,-184 444,-184zm993 188l-993 0c-121,0 -231,50 -310,130 -80,79 -130,189 -130,310l0 992c0,121 50,231 130,311 79,80 189,129 310,129l993 0c120,0 230,-49 310,-129 80,-80 129,-190 129,-311l0 -992c0,-121 -49,-231 -129,-310 -80,-80 -190,-130 -310,-130zm-497 409c145,0 277,59 373,155 96,95 155,227 155,372 0,145 -59,277 -155,373 -96,96 -228,155 -373,155 -145,0 -277,-59 -372,-155 -96,-96 -155,-228 -155,-373 0,-145 59,-277 155,-372 95,-96 227,-155 372,-155zm240 288c-62,-62 -147,-100 -240,-100 -93,0 -178,38 -239,100 -62,61 -100,146 -100,239 0,93 38,178 100,240 61,61 146,99 239,99 93,0 178,-38 240,-99 61,-62 99,-147 99,-240 0,-93 -38,-178 -99,-239zm213 -512l0 0c74,0 135,61 135,136l0 0c0,74 -61,135 -135,135l0 0c-75,0 -136,-61 -136,-135l0 0c0,-75 61,-136 136,-136z"/>
 </g>
</svg>
