<?xml version="1.0" encoding="UTF-8"?>
<!DOCTYPE svg PUBLIC "-//W3C//DTD SVG 1.1//EN" "http://www.w3.org/Graphics/SVG/1.1/DTD/svg11.dtd">
<!-- Creator: CorelDRAW X7 -->
<svg xmlns="http://www.w3.org/2000/svg" xml:space="preserve" width="26.361mm" height="23.4829mm" version="1.1" style="shape-rendering:geometricPrecision; text-rendering:geometricPrecision; image-rendering:optimizeQuality; fill-rule:evenodd; clip-rule:evenodd"
viewBox="0 0 79524 70842"
 xmlns:xlink="http://www.w3.org/1999/xlink">
 <defs>
  <style type="text/css">
   <![CDATA[
    .fil0 {fill:none}
    .fil3 {fill:#FEFEFE}
    .fil2 {fill:#D2D3D5}
    .fil5 {fill:#506C98;fill-rule:nonzero}
    .fil1 {fill:url(#id1)}
    .fil4 {fill:url(#id2)}
   ]]>
  </style>
   <clipPath id="id0">
    <path d="M69585 2007c-1898,1120 -4439,670 -7478,5420 -1795,2806 -8615,18594 -14915,33447l-1566 3275 -2168 5341c-113,-5 -225,-8 -339,-8 -4137,0 -7490,3537 -7490,7901 0,2201 854,4192 2231,5625 -576,1365 -1068,2529 -1458,3446 -553,1300 -1181,3671 -2325,4386l-3313 2c-1245,-714 -1669,-2701 -2271,-4110 -629,-1474 -1308,-2996 -1884,-4342l-16527 -38133c617,169 1244,323 1898,483 794,193 600,223 1076,-397 368,-479 921,-1286 1450,-2119l12275 28211c502,1067 188,705 997,1339l13921 -32712c5897,-13361 8221,-20077 27750,-18937l136 1882zm-64762 10116l-4823 -11130 5250 -41 4134 9503c-128,114 -250,232 -368,356 -493,521 -805,1101 -1023,1733 -12,36 -34,118 -41,136l-104 178c-456,-391 -1441,-679 -2183,-737 -286,-23 -567,-21 -842,2z"/>
   </clipPath>
  <linearGradient id="id1" gradientUnits="userSpaceOnUse" x1="34792.7" y1="5667.26" x2="34792.7" y2="65174.4">
   <stop offset="0" style="stop-opacity:1; stop-color:#A8CF45"/>
   <stop offset="0.419608" style="stop-opacity:1; stop-color:#A8CA8B"/>
   <stop offset="0.439216" style="stop-opacity:1; stop-color:#91D8F7"/>
   <stop offset="1" style="stop-opacity:1; stop-color:#A7C4D2"/>
  </linearGradient>
  <radialGradient id="id2" gradientUnits="userSpaceOnUse" gradientTransform="matrix(0.442864 1.72001 -1.72005 0.442876 32320 -9856)" cx="10694.7" cy="15326.3" r="6275.14" fx="10694.7" fy="15326.3">
   <stop offset="0" style="stop-opacity:1; stop-color:#F7ADAF"/>
   <stop offset="0.329412" style="stop-opacity:1; stop-color:#DA60A3"/>
   <stop offset="1" style="stop-opacity:1; stop-color:#C72F90"/>
  </radialGradient>
 </defs>
 <g id="Capa_x0020_1">
  <metadata id="CorelCorpID_0Corel-Layer"/>
  <path class="fil0" d="M69585 2007c-1898,1120 -4439,670 -7478,5420 -1795,2806 -8615,18594 -14915,33447l-1566 3275 -2168 5341c-113,-5 -225,-8 -339,-8 -4137,0 -7490,3537 -7490,7901 0,2201 854,4192 2231,5625 -576,1365 -1068,2529 -1458,3446 -553,1300 -1181,3671 -2325,4386l-3313 2c-1245,-714 -1669,-2701 -2271,-4110 -629,-1474 -1308,-2996 -1884,-4342l-16527 -38133c617,169 1244,323 1898,483 794,193 600,223 1076,-397 368,-479 921,-1286 1450,-2119l12275 28211c502,1067 188,705 997,1339l13921 -32712c5897,-13361 8221,-20077 27750,-18937l136 1882zm-64762 10116l-4823 -11130 5250 -41 4134 9503c-128,114 -250,232 -368,356 -493,521 -805,1101 -1023,1733 -12,36 -34,118 -41,136l-104 178c-456,-391 -1441,-679 -2183,-737 -286,-23 -567,-21 -842,2z"/>
  <path id="1" class="fil1" d="M69585 2007c-1898,1120 -4439,670 -7478,5420 -1795,2806 -8615,18594 -14915,33447l-1566 3275 -2168 5341c-113,-5 -225,-8 -339,-8 -4137,0 -7490,3537 -7490,7901 0,2201 854,4192 2231,5625 -576,1365 -1068,2529 -1458,3446 -553,1300 -1181,3671 -2325,4386l-3313 2c-1245,-714 -1669,-2701 -2271,-4110 -629,-1474 -1308,-2996 -1884,-4342l-16527 -38133c617,169 1244,323 1898,483 794,193 600,223 1076,-397 368,-479 921,-1286 1450,-2119l12275 28211c502,1067 188,705 997,1339l13921 -32712c5897,-13361 8221,-20077 27750,-18937l136 1882zm-64762 10116l-4823 -11130 5250 -41 4134 9503c-128,114 -250,232 -368,356 -493,521 -805,1101 -1023,1733 -12,36 -34,118 -41,136l-104 178c-456,-391 -1441,-679 -2183,-737 -286,-23 -567,-21 -842,2z"/>
  <g style="clip-path:url(#id0)">
   <g id="_1783361390864">
    <g>
    </g>
    <g>
    </g>
    <ellipse class="fil2" cx="70152" cy="59316" rx="26227" ry="25896"/>
    <g>
    </g>
    <circle class="fil3" cx="42979" cy="57150" r="7527"/>
   </g>
  </g>
  <path class="fil4" d="M14169 12738c-175,-334 -1062,-716 -1455,-822 -539,-146 -1179,-176 -1853,-1 -723,188 -1281,566 -1730,1035 -361,377 -591,798 -752,1256 -9,27 -25,86 -30,99l-76 130c-331,-287 -1046,-500 -1585,-546 -2013,-170 -3702,1284 -3884,3207 -134,1412 619,2648 1670,3288 1055,644 971,677 2237,1231 168,73 626,300 778,321 99,63 110,51 222,92l1609 553c622,191 1245,348 1909,514 576,144 435,165 784,-284 564,-727 1728,-2498 2069,-3296 128,-300 299,-560 426,-872 416,-1026 978,-2704 795,-3878 -105,-675 -328,-1153 -750,-1671 -96,-117 -243,-307 -384,-356z"/>
  <path class="fil5" d="M48716 60876c-683,971 -1510,1717 -2481,2239 -971,521 -2049,782 -3235,782 -917,0 -1780,-176 -2589,-526 -809,-351 -1510,-823 -2104,-1416 -593,-593 -1065,-1294 -1415,-2103 -351,-809 -526,-1672 -526,-2589 0,-935 175,-1807 526,-2616 350,-809 822,-1515 1415,-2117 594,-602 1295,-1078 2104,-1429 809,-350 1672,-526 2589,-526 1186,0 2278,270 3276,809 998,540 1838,1322 2521,2346l-8521 8198c414,270 876,476 1389,620 512,144 1047,198 1604,162 953,-54 1829,-319 2629,-795 800,-477 1461,-1093 1982,-1848l836 809zm-11218 -3775c-35,881 135,1694 513,2441 377,746 881,1352 1510,1820l7658 -7524c-467,-629 -1083,-1146 -1847,-1550 -764,-405 -1595,-589 -2494,-553 -719,18 -1398,166 -2036,445 -639,279 -1196,660 -1672,1146 -476,485 -863,1052 -1160,1699 -296,647 -453,1339 -472,2076zm14773 -10301l0 4315 -1240 0 0 -4315 1240 0zm3636 -755l0 10625 3128 0 5555 -6041 1510 0 -6067 6607 6067 6607 -1510 0 -5474 -5987 -3209 0 0 5987 -1241 0 0 -17798 1241 0zm12373 4584l4934 11623 5016 -11623 1294 0 -7550 17448 -1213 0 1833 -4180 -5635 -13268 1321 0z"/>
 </g>
</svg>
