<?xml version="1.0" encoding="UTF-8"?>
<!DOCTYPE svg PUBLIC "-//W3C//DTD SVG 1.1//EN" "http://www.w3.org/Graphics/SVG/1.1/DTD/svg11.dtd">
<!-- Creator: CorelDRAW X7 -->
<svg xmlns="http://www.w3.org/2000/svg" xml:space="preserve" width="24.3889mm" height="4.3026mm" version="1.1" style="shape-rendering:geometricPrecision; text-rendering:geometricPrecision; image-rendering:optimizeQuality; fill-rule:evenodd; clip-rule:evenodd"
viewBox="0 0 15351 2708"
 xmlns:xlink="http://www.w3.org/1999/xlink">
 <defs>
  <style type="text/css">
   <![CDATA[
    .fil1 {fill:#373435}
    .fil2 {fill:#EC268F}
    .fil0 {fill:#373435;fill-rule:nonzero}
   ]]>
  </style>
    <mask id="id0">
  <linearGradient id="id1" gradientUnits="userSpaceOnUse" x1="715.461" y1="445.503" x2="705.516" y2="586.367">
   <stop offset="0" style="stop-opacity:1; stop-color:white"/>
   <stop offset="1" style="stop-opacity:0; stop-color:white"/>
  </linearGradient>
     <rect style="fill:url(#id1)" x="-63" y="-3" width="1547" height="1037"/>
    </mask>
 </defs>
 <g id="Capa_x0020_1">
  <metadata id="CorelCorpID_0Corel-Layer"/>
  <g id="_1783450256304">
   <path class="fil0" d="M2568 60c8,0 15,4 20,13 5,8 8,18 8,30 0,14 -3,25 -8,33 -5,9 -12,12 -20,12l-529 0 0 2494c0,12 -2,22 -8,30 -5,9 -12,13 -20,13 -8,0 -15,-4 -20,-13 -5,-8 -8,-18 -8,-30l0 -2494 -533 0c-7,0 -14,-3 -20,-12 -5,-8 -7,-19 -7,-33 0,-24 7,-39 23,-43l1122 0zm400 13c8,0 14,4 20,12 5,8 8,18 8,30l0 2543c0,11 -3,22 -8,29 -6,9 -12,13 -20,13 -8,0 -15,-4 -20,-13 -5,-7 -8,-18 -8,-29l0 -2546c0,-20 7,-33 20,-39l8 0zm960 -13c8,0 15,4 20,13 6,8 8,18 8,30 0,12 -2,22 -8,30 -5,8 -12,13 -20,13l-533 0 0 1186 533 0c8,0 15,4 20,12 6,8 8,18 8,30 0,12 -2,22 -8,30 -5,9 -12,12 -20,12l-533 0 0 1187 533 0c8,0 15,4 20,12 6,8 8,18 8,30 0,13 -2,22 -8,31 -5,8 -12,11 -20,11l-568 0c-2,-2 -4,-3 -6,-5 -3,-2 -5,-4 -7,-6 0,-3 0,-4 -1,-4l0 -3c-2,-2 -3,-5 -4,-8 -2,-5 -2,-10 -2,-16l0 -2545c0,-18 5,-31 16,-40l572 0zm1350 -2l2 0c2,0 3,1 6,2l2 0c2,0 4,1 6,3 2,2 3,5 4,7 1,2 3,4 4,6 0,2 1,4 2,6l0 3c0,4 1,7 2,9l0 12 219 2530 0 6c0,12 -3,22 -8,30 -5,9 -12,13 -20,13 -7,0 -13,-4 -18,-11 -5,-7 -8,-15 -10,-26l-199 -2297 -330 2300c0,13 -2,22 -8,31 -5,8 -12,12 -19,12 -9,0 -15,-4 -20,-12 -6,-9 -8,-18 -8,-31l-330 -2300 -199 2297c-2,11 -5,19 -10,26 -6,7 -11,11 -18,11 -8,0 -15,-4 -20,-13 -5,-8 -8,-18 -8,-30l0 -6 219 -2542c2,-22 11,-34 26,-36l2 0c15,0 25,11 28,33l338 2349 338 -2343 0 -9 2 -3 0 -3c0,-2 0,-3 1,-3 3,-8 7,-14 13,-16 1,-2 2,-3 3,-5l4 0c2,-2 3,-3 4,-3l0 3zm923 2c130,11 239,86 326,224 81,128 121,276 121,445 0,15 0,30 -2,46 -5,177 -52,328 -140,451 -88,123 -194,187 -317,190l-264 0 0 1229c0,13 -3,22 -8,31 -6,8 -12,11 -20,11 -8,0 -15,-3 -20,-11 -5,-9 -8,-18 -8,-31l0 -2545c0,-20 7,-33 20,-40l312 0zm-276 1272l262 0c109,-4 202,-60 279,-168 78,-108 119,-240 125,-395 6,-164 -29,-306 -106,-429 -77,-122 -172,-187 -286,-194l-274 0 0 1186zm2265 -1176c107,70 199,163 276,280 76,117 138,257 184,419 45,162 68,331 68,508l-56 0c0,-221 -36,-426 -108,-614 -72,-189 -170,-338 -294,-448 -124,-110 -259,-165 -405,-165 -146,0 -281,55 -404,165 -125,110 -223,259 -295,448 -72,189 -108,394 -108,616 0,222 36,427 108,616 72,188 170,338 295,448 123,110 258,165 404,165 142,0 273,-52 394,-156l0 95c-19,14 -39,28 -59,41 -106,70 -218,105 -335,105 -117,0 -228,-35 -335,-105 -107,-69 -198,-163 -275,-280 -77,-117 -138,-256 -184,-419 -46,-162 -69,-332 -69,-510 0,-178 23,-348 69,-510 46,-162 107,-302 184,-419 77,-117 168,-210 275,-280 107,-70 218,-104 335,-104 117,0 229,34 335,104z"/>
   <path class="fil0" d="M10780 7c102,0 196,31 283,94 5,5 7,11 7,18 0,6 -2,11 -5,15 -3,3 -7,5 -12,5 -4,0 -8,-1 -10,-3 -76,-55 -158,-85 -246,-89 -89,-4 -172,17 -250,63 -79,47 -142,114 -190,201 -48,87 -74,181 -78,283 -4,101 15,197 56,287 41,90 99,162 175,218 99,72 206,100 322,85 115,-15 214,-69 297,-164 3,-3 7,-4 11,-4 4,0 8,2 11,6 4,3 6,8 6,13 0,5 -1,9 -4,12 -88,101 -194,159 -317,176 -22,1 -43,2 -64,2 -100,0 -193,-31 -280,-92 -81,-60 -143,-137 -187,-234 -40,-89 -60,-183 -60,-282 0,-8 1,-16 1,-25 4,-108 31,-209 82,-303 49,-87 111,-155 188,-204 77,-49 159,-75 246,-78l18 0zm875 37l2 1c0,0 1,0 2,1l1 0 0 2 1 0 0 1 2 0c1,2 1,4 2,6 0,1 0,1 1,2 0,0 0,1 0,2l0 3 343 1135 0 7c0,6 -1,10 -4,14 -4,4 -8,6 -13,6 -8,0 -14,-5 -17,-14l-119 -397 -414 0 -119 397c-3,9 -9,14 -17,14 -5,0 -9,-2 -12,-6 -3,-4 -5,-8 -5,-14l0 -7 343 -1137 0 -1c0,-1 0,-2 1,-2 0,-1 0,-1 0,-2l0 -3c1,0 1,0 1,-1l0 -2c1,0 2,0 3,-1 1,-1 2,-2 2,-2 1,-2 3,-2 4,-2l12 0zm-199 723l387 0 -194 -642 -193 642zm820 -766c2,1 3,2 4,2 78,7 142,43 194,107 52,63 76,138 72,223 -3,58 -18,111 -48,157 -29,47 -67,83 -114,109 64,14 117,47 161,101 43,54 66,117 70,189l0 19c0,79 -25,149 -74,209 -54,65 -121,99 -201,104l-184 0c-2,0 -3,0 -5,-1l-1 0 0 -2 -1 0c-5,-4 -8,-9 -8,-17 0,-3 1,-7 3,-9l0 -569c-2,-3 -3,-7 -3,-12 0,-4 1,-7 3,-10l0 -569c-2,-2 -3,-6 -3,-9 0,-8 3,-14 8,-17 1,-1 3,-2 4,-3l1 0c1,0 1,0 2,-1 0,0 1,-1 1,-1l119 0zm-98 591l85 0c67,-2 124,-28 172,-79 48,-50 73,-111 77,-183 4,-76 -18,-142 -65,-198 -47,-56 -106,-87 -177,-91l-92 0 0 551zm0 590l161 0c71,-5 130,-36 177,-92 47,-56 68,-122 64,-198 -3,-71 -28,-132 -76,-182 -47,-50 -104,-76 -171,-79l-155 0 0 551zm931 -1178c5,0 9,2 12,6 4,4 5,8 5,14 0,6 -1,10 -5,14 -3,4 -7,6 -12,6l-328 0 0 550 328 0c5,0 9,2 12,6 4,4 5,8 5,14 0,6 -1,10 -5,14 -3,4 -7,6 -12,6l-328 0 0 550 328 0c5,0 9,2 12,6 4,4 5,9 5,14 0,6 -1,10 -5,14 -3,4 -7,6 -12,6l-350 0c-1,-1 -2,-2 -4,-3 -2,-1 -3,-2 -4,-3 0,-1 0,-1 -1,-1l0 -2c-1,-1 -1,-2 -2,-4 -1,-2 -2,-4 -2,-7l0 -1181c0,-9 4,-15 10,-19l353 0zm166 -3c5,0 9,2 13,6 3,4 5,8 5,14l0 1161 330 0c5,0 9,2 13,6 3,4 5,9 5,13 0,6 -2,11 -5,14 -4,4 -8,6 -13,6l-348 0c-4,0 -9,-2 -12,-6 -3,-3 -5,-8 -5,-14l0 -1180c0,-10 4,-17 13,-20l4 0zm515 0c5,0 9,2 12,6 3,4 5,8 5,14l0 1161 331 0c5,0 9,2 12,6 3,4 5,9 5,13 0,6 -2,11 -5,14 -3,4 -7,6 -12,6l-348 0c-5,0 -9,-2 -13,-6 -3,-3 -4,-8 -4,-14l0 -1180c0,-10 4,-17 12,-20l5 0zm1235 47c66,33 123,76 170,130 47,55 85,120 114,195 28,75 42,154 42,237 0,82 -14,161 -42,237 -29,75 -67,140 -114,194 -47,54 -104,98 -170,130 -65,32 -134,49 -206,49 -72,0 -141,-17 -206,-49 -66,-32 -123,-76 -170,-130 -48,-54 -85,-119 -114,-194 -28,-76 -42,-155 -42,-237 0,-83 14,-162 42,-237 29,-75 66,-140 114,-195 47,-54 104,-97 170,-130 65,-32 134,-48 206,-48 72,0 141,16 206,48zm-455 68c-77,51 -137,120 -182,208 -44,88 -67,183 -67,286 0,103 23,198 67,286 45,87 105,157 182,208 76,51 159,76 249,76 90,0 173,-25 249,-76 77,-51 137,-121 182,-208 44,-88 66,-183 66,-286 0,-103 -22,-198 -66,-286 -45,-88 -105,-157 -182,-208 -76,-51 -159,-77 -249,-77 -90,0 -173,26 -249,77z"/>
   <path class="fil0" d="M9482 37l0 1 2 0c38,1 74,14 106,39 33,26 59,59 77,101 19,42 28,88 28,137 0,49 -10,95 -29,136 -19,42 -45,75 -77,100 -33,25 -68,38 -107,38l-120 0 0 0 -2 0 0 -1 0 0c-2,-2 -3,-4 -3,-8 0,-1 0,-2 1,-3l0 -526c-1,-2 -1,-3 -1,-4 0,-4 1,-7 5,-9 0,0 0,0 1,-1l119 0zm-110 535l110 0c36,-1 69,-13 100,-36 30,-23 54,-54 72,-93 17,-40 26,-82 27,-128 0,-46 -9,-89 -27,-129 -17,-39 -41,-71 -72,-94 -30,-23 -64,-35 -100,-37l-110 0 0 517zm-8 139c2,0 4,0 5,2 1,2 2,4 2,7l0 401c1,34 14,63 41,87 27,25 60,37 98,37 38,0 71,-13 98,-38 26,-24 39,-54 38,-88l0 -399c0,-6 2,-9 6,-9l2 0c2,0 3,0 5,2 1,2 2,4 2,7l0 409c0,1 0,3 -1,4l0 1c-4,34 -18,63 -44,87 -29,27 -64,41 -106,41l-2 0c-41,0 -76,-13 -105,-40 -27,-24 -42,-53 -45,-89l0 0c0,0 0,0 -1,0 0,0 0,0 0,-1l0 0c0,-1 0,-2 0,-3l0 -410c0,-4 1,-7 5,-8l2 0z"/>
   <path class="fil0" d="M9950 41c2,0 4,0 5,2 2,2 2,4 2,7 0,2 0,4 -2,6 -1,2 -3,2 -5,2l-139 0 0 250 139 0c2,0 4,0 5,2 2,2 2,4 2,7 0,2 0,4 -2,6 -1,2 -3,2 -5,2l-139 0 0 250 139 0c2,0 4,1 5,2 2,2 2,4 2,7 0,2 0,4 -2,6 -1,2 -3,3 -5,3l-148 0c0,-1 -1,-1 -2,-2 0,0 -1,-1 -1,-1 0,0 0,-1 -1,-1l0 0c0,-1 0,-1 -1,-2 0,-1 0,-2 0,-3l0 -535c0,-4 1,-7 4,-8l149 0zm-144 666c0,0 1,1 1,1l1 0c0,1 1,2 2,3l1 2 0 0 276 508 0 -505c0,-5 2,-8 5,-9l2 0c2,0 3,1 5,2 1,2 2,4 2,7l0 535c0,3 -1,5 -2,7 -1,1 -3,2 -5,2 -1,0 -3,-1 -4,-2 -2,-1 -3,-3 -3,-5l-276 -508 0 505c0,3 0,5 -2,7 -2,1 -3,2 -5,2 -2,0 -4,-1 -5,-2 -1,-2 -2,-4 -2,-7l0 -538c0,0 0,0 0,-1 1,-1 1,-1 2,-2 0,0 1,0 1,-1l0 -1c1,0 1,0 2,0l4 0z"/>
   <path class="fil0" d="M8495 1430c6,0 11,2 14,6 4,4 6,9 6,15l0 597 754 0 0 -597c0,-12 5,-19 17,-21l2 0c6,0 11,2 15,6 3,4 5,9 5,15l0 613c1,2 2,3 2,4 0,2 -1,4 -2,6l0 612c0,6 -2,11 -5,15 -4,4 -8,6 -13,6 -6,0 -11,-2 -15,-6 -4,-4 -6,-9 -6,-15l0 -597 -754 0 0 597c0,6 -2,11 -6,15 -3,4 -8,6 -12,6 -6,0 -11,-2 -15,-6 -4,-4 -7,-9 -7,-15l0 -609c-1,-3 -1,-6 -1,-9 0,-2 0,-5 1,-7l0 -612c0,-10 5,-16 14,-19l6 0zm1387 -2c5,0 10,2 14,7 4,4 5,8 5,14 0,6 -1,11 -5,15 -4,4 -9,6 -14,6l-380 0 0 576 380 0c5,0 10,2 14,6 4,4 5,9 5,15 0,6 -1,11 -5,15 -4,4 -9,5 -14,5l-380 0 0 577 380 0c5,0 10,2 14,6 4,4 5,9 5,15 0,6 -1,10 -5,14 -4,4 -9,6 -14,6l-405 0c-1,-1 -3,-2 -5,-3 -2,-1 -3,-2 -4,-3 0,-1 -1,-1 -1,-1l0 -2c-1,-1 -2,-2 -3,-4 -1,-2 -2,-4 -2,-7l0 -1237c0,-9 4,-16 12,-20l408 0zm403 0c92,6 169,42 231,109 62,68 91,148 86,239 -3,73 -29,138 -78,194 -48,56 -108,92 -179,109l344 595c4,4 5,9 5,14 0,6 -2,10 -6,14 -4,4 -9,6 -13,6 -10,0 -16,-4 -20,-13l-352 -610c-16,2 -25,2 -26,2l-180 0 0 598c0,6 -2,10 -6,14 -4,4 -9,6 -14,6 -6,0 -11,-2 -14,-6 -4,-4 -6,-8 -6,-14l0 -609c-2,-3 -3,-6 -3,-9 0,-3 1,-6 3,-9l0 -600c-1,-3 -1,-6 -1,-9 0,-7 2,-12 8,-18l1 0c1,-1 3,-1 5,-1l0 -2 215 0zm-188 618l178 0c77,-2 144,-29 199,-81 55,-53 85,-117 89,-192 3,-80 -22,-149 -76,-208 -55,-60 -123,-91 -205,-95l-185 0 0 576zm1447 -619l1 0c1,0 3,1 5,1l1 0c1,0 2,1 4,2 1,1 2,2 3,3 1,1 2,2 3,3 0,1 0,2 1,3l0 1c0,2 1,4 2,5l0 6 156 1229 0 3c0,6 -2,11 -6,15 -4,4 -8,6 -14,6 -5,0 -9,-2 -13,-5 -4,-4 -6,-8 -7,-13l-142 -1116 -235 1118c0,6 -2,10 -6,14 -3,4 -8,6 -14,6 -5,0 -10,-2 -14,-6 -4,-4 -5,-8 -5,-14l-236 -1118 -141 1116c-1,5 -4,9 -7,13 -4,3 -8,5 -13,5 -6,0 -11,-2 -14,-6 -4,-4 -6,-9 -6,-15l0 -3 156 -1235c2,-11 8,-17 18,-18l2 0c11,0 18,5 20,16l240 1142 241 -1139 0 -4 2 -2 0 -1c0,-1 0,-1 1,-1 2,-4 5,-7 9,-8 1,-1 1,-2 2,-3l3 0c1,-1 2,-1 3,-1l0 1zm1182 48c76,34 141,79 196,136 55,57 98,125 131,204 33,79 49,161 49,248 0,86 -16,168 -49,247 -33,79 -76,147 -131,204 -55,57 -120,102 -196,136 -76,34 -156,51 -239,51 -83,0 -163,-17 -239,-51 -76,-34 -141,-79 -196,-136 -55,-57 -98,-125 -131,-204 -33,-79 -49,-161 -49,-247 0,-87 16,-169 49,-248 33,-79 76,-147 131,-204 55,-57 120,-102 196,-136 76,-34 156,-51 239,-51 83,0 163,17 239,51zm-527 70c-89,54 -159,126 -210,218 -51,92 -77,192 -77,300 0,107 26,207 77,299 51,91 121,164 210,217 88,54 184,81 288,81 104,0 200,-27 288,-81 89,-53 159,-126 210,-217 51,-92 77,-192 77,-299 0,-108 -26,-208 -77,-300 -51,-92 -121,-164 -210,-218 -88,-53 -184,-80 -288,-80 -104,0 -200,27 -288,80zm1609 -39c54,56 81,124 81,204 0,5 -2,10 -5,14 -4,4 -9,6 -15,6 -5,0 -10,-2 -14,-6 -3,-4 -5,-9 -5,-14 0,-69 -24,-127 -70,-176 -46,-48 -102,-72 -168,-72 -67,0 -123,24 -169,72 -46,49 -69,107 -69,176 0,68 23,126 69,175 46,48 102,72 169,72l10 0c96,3 178,40 245,112 68,72 102,158 102,258 0,102 -35,189 -105,262 -70,73 -154,109 -252,109 -99,0 -183,-36 -253,-109 -69,-73 -104,-160 -104,-262 0,-6 1,-10 5,-14 4,-4 9,-6 14,-6 6,0 11,2 15,6 3,4 5,8 5,14 0,91 31,169 93,233 62,65 137,97 225,97 87,0 162,-32 224,-97 62,-64 93,-142 93,-233 0,-89 -30,-166 -90,-229 -60,-64 -133,-97 -219,-100l-8 0c-77,0 -142,-28 -197,-85 -54,-56 -81,-124 -81,-203 0,-80 27,-148 81,-204 55,-57 120,-85 197,-85 76,0 141,28 196,85zm1167 -31c76,34 141,79 196,136 55,57 98,125 131,204 33,79 49,161 49,248 0,86 -16,168 -49,247 -33,79 -76,147 -131,204 -55,57 -120,102 -196,136 -76,34 -156,51 -239,51 -83,0 -163,-17 -239,-51 -76,-34 -141,-79 -196,-136 -55,-57 -98,-125 -131,-204 -33,-79 -49,-161 -49,-247 0,-87 16,-169 49,-248 33,-79 76,-147 131,-204 55,-57 120,-102 196,-136 76,-34 156,-51 239,-51 83,0 163,17 239,51zm-527 70c-89,54 -159,126 -210,218 -52,92 -77,192 -77,300 0,107 25,207 77,299 51,91 121,164 210,217 88,54 184,81 288,81 104,0 200,-27 288,-81 89,-53 159,-126 210,-217 51,-92 77,-192 77,-299 0,-108 -26,-208 -77,-300 -51,-92 -121,-164 -210,-218 -88,-53 -184,-80 -288,-80 -104,0 -200,27 -288,80z"/>
   <path class="fil0" d="M442 1208c5,0 9,3 13,7 4,4 5,10 5,16 0,7 -1,12 -5,16 -4,5 -8,7 -13,7l-351 0 0 630 351 0c5,0 9,2 13,7 4,4 5,9 5,15 0,7 -1,12 -5,17 -4,4 -8,6 -13,6l-351 0 0 630 351 0c5,0 9,3 13,7 4,4 5,10 5,16 0,7 -1,12 -5,16 -4,5 -8,6 -13,6l-374 0c-1,-1 -3,-1 -4,-3 -2,-1 -4,-2 -4,-3 0,-1 -1,-1 -2,-1l0 -2c0,-1 -1,-3 -2,-5 -1,-2 -2,-5 -2,-8l0 -1352c0,-10 4,-17 11,-22l377 0zm670 85c50,62 76,136 76,223 0,6 -2,12 -6,16 -3,4 -8,6 -13,6 -5,0 -9,-2 -13,-6 -3,-4 -5,-10 -5,-16 0,-75 -22,-139 -64,-192 -43,-52 -95,-79 -156,-79 -61,0 -113,27 -156,79 -42,53 -64,117 -64,192 0,75 22,138 64,191 43,53 95,79 156,79l9 0c89,3 165,44 227,123 63,79 94,173 94,282 0,112 -32,207 -97,286 -65,80 -142,120 -233,120 -91,0 -168,-40 -233,-120 -64,-79 -97,-174 -97,-286 0,-6 2,-11 5,-16 4,-4 8,-6 13,-6 6,0 10,2 14,6 3,5 5,10 5,16 0,100 28,185 86,255 57,70 126,105 207,105 81,0 150,-35 207,-105 58,-70 86,-155 86,-255 0,-97 -28,-181 -83,-251 -55,-69 -123,-106 -202,-109l-8 0c-71,0 -131,-31 -181,-93 -51,-61 -76,-135 -76,-222 0,-87 25,-161 76,-223 50,-62 110,-93 181,-93 71,0 131,31 181,93z"/>
   <path class="fil1" style="mask:url(#id0)" d="M80 868c114,3 1192,52 1281,-48 68,-206 -605,-97 -774,-119 -49,-6 -577,-61 -586,-115 -23,-133 679,-70 788,-189 -651,-212 -188,-138 -135,-218 16,-25 -135,-115 -142,-119 370,159 -28,159 -43,198 15,28 199,71 199,71 528,156 -403,179 -600,243 123,19 520,77 533,79 146,16 836,-102 820,139 -20,276 -1207,156 -1341,153 -17,0 -31,-17 -31,-38 0,-20 14,-37 31,-37z"/>
   <path class="fil2" d="M9151 137c-10,-19 -58,-41 -79,-47 -29,-9 -63,-11 -100,0 -39,10 -69,32 -93,59 -19,22 -32,46 -41,72 0,2 -1,5 -1,6l-4 7c-18,-16 -57,-28 -86,-31 -108,-10 -199,74 -209,184 -7,81 33,152 90,189 57,37 52,39 121,70 9,5 33,18 42,19 5,4 6,3 11,5l87 32c34,11 67,20 103,30 31,8 24,9 42,-17 31,-42 94,-143 112,-189 7,-17 16,-32 23,-50 22,-59 53,-155 43,-223 -6,-39 -18,-66 -41,-96 -5,-7 -13,-17 -20,-20z"/>
  </g>
 </g>
</svg>
