<?xml version="1.0" encoding="UTF-8"?>
<!DOCTYPE svg PUBLIC "-//W3C//DTD SVG 1.1//EN" "http://www.w3.org/Graphics/SVG/1.1/DTD/svg11.dtd">
<!-- Creator: CorelDRAW X7 -->
<svg xmlns="http://www.w3.org/2000/svg" xml:space="preserve" width="221.894mm" height="39.1457mm" version="1.1" style="shape-rendering:geometricPrecision; text-rendering:geometricPrecision; image-rendering:optimizeQuality; fill-rule:evenodd; clip-rule:evenodd"
viewBox="0 0 6069261 1070718"
 xmlns:xlink="http://www.w3.org/1999/xlink">
 <defs>
  <style type="text/css">
   <![CDATA[
    .fil1 {fill:#373435}
    .fil2 {fill:#ED297C}
    .fil0 {fill:#373435;fill-rule:nonzero}
   ]]>
  </style>
    <mask id="id0">
  <linearGradient id="id1" gradientUnits="userSpaceOnUse" x1="282881" y1="176107" x2="278926" y2="231828">
   <stop offset="0" style="stop-opacity:1; stop-color:white"/>
   <stop offset="1" style="stop-opacity:0; stop-color:white"/>
  </linearGradient>
     <rect style="fill:url(#id1)" x="-2735" y="21154" width="567278" height="365627"/>
    </mask>
 </defs>
 <g id="Capa_x0020_1">
  <metadata id="CorelCorpID_0Corel-Layer"/>
  <g id="_2282065751392">
   <path class="fil0" d="M1015289 23840c3088,0 5763,1639 7921,4899 2005,3260 3096,7152 3096,12046 0,5530 -1091,9811 -3096,13080 -2158,3263 -4833,4690 -7921,4690l-209175 0 0 986003c0,4899 -933,8783 -3080,12052 -2158,3277 -4697,4899 -7921,4899 -3080,0 -5769,-1622 -7777,-4899 -2155,-3269 -3230,-7153 -3230,-12052l0 -986003 -210633 0c-3083,0 -5771,-1427 -7921,-4690 -2013,-3269 -3080,-7550 -3080,-13080 0,-9582 3080,-15306 9384,-16945l443433 0zm158068 4899c3080,0 5755,1638 7913,4696 2005,3277 3080,7350 3080,12052l0 1005209c0,4688 -1075,8769 -3080,11841 -2158,3263 -4833,4899 -7913,4899 -3096,0 -5771,-1636 -7927,-4899 -2005,-3072 -3088,-7153 -3088,-11841l0 -1006427c0,-7970 2683,-13066 7919,-15530l3096 0zm379710 -4899c3214,0 5763,1639 7910,4899 2142,3260 3083,7152 3083,12046 0,4702 -941,8588 -3083,11849 -2147,3268 -4696,4907 -7910,4907l-210649 0 0 468903 210649 0c3214,0 5763,1632 7910,4898 2142,3061 3083,7139 3083,11852 0,4891 -941,8775 -3083,12035 -2147,3263 -4696,4713 -7910,4713l-210649 0 0 469100 210649 0c3214,0 5763,1638 7910,4907 2142,3057 3083,7136 3083,11840 0,4907 -941,8783 -3083,12052 -2147,3263 -4696,4696 -7910,4696l-224747 0c-517,-826 -1329,-1433 -2404,-2246 -1072,-826 -1885,-1638 -2426,-2450 0,-835 -263,-1231 -654,-1231l0 -1226c-555,-812 -1080,-2043 -1622,-3462 -533,-1639 -804,-3682 -804,-6133l0 -1006221c0,-7350 2155,-12468 6318,-15728l226339 0zm533862 -1015l809 0c528,0 1196,408 2279,1015l809 0c534,0 1346,405 2421,1217 525,821 1059,1639 1458,2451 547,826 1088,1638 1622,2464 0,810 257,1622 804,2246l0 1217c0,1647 271,2864 796,3682l0 4688 86416 1000505 0 2248c0,4899 -946,8783 -3096,12052 -2147,3277 -4680,4899 -7902,4899 -2563,0 -4984,-1420 -6980,-4298 -2142,-2841 -3488,-6115 -4037,-10188l-78616 -908214 -130409 909431c0,4907 -1059,8766 -3217,12051 -2021,3058 -4702,4697 -7790,4697 -3217,0 -5763,-1639 -7905,-4697 -2158,-3285 -3082,-7144 -3082,-12051l-130557 -909431 -78640 908214c-526,4073 -1863,7347 -3879,10188 -2147,2878 -4426,4298 -7114,4298 -3080,0 -5763,-1622 -7919,-4899 -2007,-3269 -3082,-7153 -3082,-12052l0 -2248 86536 -1005193c947,-8783 4426,-13479 10205,-14292l805 0c6167,0 9931,4275 10998,13066l133634 928621 133623 -926178 0 -3665 813 -1234 0 -1217c0,-624 271,-1015 667,-1015 1075,-3274 2683,-5325 4839,-6146 536,-812 941,-1419 1474,-2232l1608 0c547,-826 1075,-1230 1609,-1230l0 1230zm364822 1015c51244,4089 94321,33701 128801,88632 32076,50238 48036,108845 48036,175839 0,5724 -279,11638 -818,17981 -2128,70254 -20527,129671 -55399,178278 -34895,48810 -76610,73922 -125450,75372l-104518 0 0 485847c0,4907 -1089,8783 -3096,12052 -2139,3263 -4831,4696 -7911,4696 -3079,0 -5763,-1433 -7921,-4696 -2013,-3269 -3080,-7145 -3080,-12052l0 -1006221c0,-7974 2684,-13277 7922,-15728l123434 0zm-109348 502604l103714 0c43055,-1434 79827,-23707 110543,-66384 30610,-42669 46961,-94748 49117,-156017 2541,-64745 -11264,-121112 -41732,-169509 -30317,-48202 -68013,-73922 -113112,-76993l-108530 0 0 468903zm895727 -464817c42265,27568 78487,64319 108941,110678 30325,46375 54611,101503 72727,165836 18033,63875 27026,130792 27095,200753l-22008 0c-90,-87513 -14436,-168308 -42806,-242815 -28569,-74543 -67341,-133572 -116457,-177062 -48960,-43511 -102226,-65152 -159923,-65152 -57691,0 -110973,21641 -159938,65152 -49103,43490 -87874,102519 -116457,177062 -28575,74739 -42798,155805 -42798,243636 0,87814 14223,168902 42798,243431 28583,74543 67354,133774 116457,177061 48965,43512 102247,65355 159938,65355 55998,0 107831,-20588 155596,-61583l0 37314c-7514,5831 -15233,11337 -23165,16507 -42130,27382 -86282,41252 -132431,41252 -46159,0 -90294,-13870 -132439,-41252 -42264,-27560 -78481,-64521 -108943,-110678 -30317,-46359 -54595,-101504 -72718,-165836 -18107,-64121 -27101,-131317 -27101,-201571 0,-70254 8994,-137450 27101,-201574 18123,-64333 42401,-119461 72718,-165836 30462,-46359 66679,-83110 108943,-110678 42145,-27568 86280,-41258 132439,-41258 46149,0 90301,13690 132431,41258z"/>
   <path class="fil0" d="M4261920 2757c40358,0 77650,12412 111881,37259 1986,1797 2897,4267 2897,7202 0,2183 -583,4078 -1904,5588 -1321,1428 -2896,2183 -4874,2183 -1575,0 -2905,-378 -3889,-1133 -30022,-21808 -62432,-33566 -97328,-35273 -34884,-1608 -67885,6737 -98891,25035 -31006,18296 -55984,44749 -75084,79160 -19021,34412 -29267,71769 -30761,111876 -1411,40194 5867,78118 22079,113670 16124,35552 39196,64187 69291,86085 39032,28537 81441,39819 127177,33846 45645,-5884 84838,-27593 117502,-64942 1239,-1141 2724,-1707 4299,-1707 1658,0 3143,755 4628,2273 1494,1419 2150,3315 2150,5497 0,1896 -410,3324 -1403,4456 -34896,40008 -76734,63145 -125527,69496 -8682,665 -17109,1043 -25131,1043 -39442,0 -76406,-12227 -110973,-36595 -31999,-23416 -56556,-54135 -73670,-92248 -15796,-35174 -23731,-72434 -23731,-111687 0,-2937 164,-6250 492,-9950 1321,-42659 12071,-82388 32410,-119458 19111,-34412 43823,-61430 74173,-80866 30350,-19437 62850,-29678 97418,-30810l6769 0zm346264 14497l493 476c328,0 656,188 993,574l410 0 0 566 500 0 0 566 493 0c328,764 664,1518 1001,2183 0,378 74,665 238,854 164,188 254,475 254,853l0 1140 135609 448811 0 2748c0,2282 -664,4079 -1903,5597 -1327,1518 -2894,2182 -4880,2182 -3225,0 -5457,-1805 -6778,-5497l-46966 -156723 -163812 0 -46964 156723c-1321,3692 -3553,5497 -6786,5497 -1903,0 -3553,-664 -4874,-2182 -1239,-1518 -1904,-3315 -1904,-5597l0 -2748 135694 -449385 0 -566c0,-378 82,-665 246,-853 173,-189 247,-476 247,-854l0 -1042c254,0 418,-189 418,-566l0 -575c328,0 665,-188 993,-566 328,-377 656,-566 985,-566 336,-763 828,-1050 1411,-1050l4882 0zm-78973 286032l153062 0 -76485 -253885 -76577 253885zm324505 -302712c583,378 1083,567 1412,567 30678,2937 56309,16966 76815,42190 20512,25222 29940,54611 28373,88359 -1001,22940 -7279,43705 -18939,62193 -11666,18484 -26633,32803 -45068,42757 25213,5593 46381,18960 63506,40292 17114,21236 26296,46170 27617,74707l0 7204c0,31483 -9674,59067 -29110,82771 -21332,25599 -47787,39253 -79467,41148l-72677 0c-664,0 -1239,-189 -1895,-574l-509 0 0 -566 -492 0c-1904,-1518 -2889,-3701 -2889,-6639 0,-1518 328,-2839 985,-3889l0 -224971c-657,-1141 -985,-2659 -985,-4456 0,-1518 328,-2847 985,-3887l0 -224979c-657,-1133 -985,-2462 -985,-3881 0,-3037 985,-5219 2889,-6737 664,-378 1165,-665 1493,-1042l492 0c337,0 501,-91 665,-288 164,-188 418,-279 747,-279l47037 0zm-38777 233317l33402 0c26469,-755 49207,-11094 68061,-30908 18938,-19817 29020,-43898 30350,-72434 1567,-30046 -6868,-56121 -25468,-78309 -18608,-22276 -41928,-34322 -70038,-36119l-36307 0 0 217770zm0 233322l63424 0c28110,-1896 51439,-13939 70038,-36127 18610,-22276 27035,-48350 25468,-78307 -1322,-28159 -11321,-52141 -30096,-71957 -18690,-19814 -41343,-30342 -67806,-31384l-61028 0 0 217775zm368009 -465596c1986,0 3561,754 4874,2272 1321,1519 1904,3324 1904,5597 0,2182 -583,3979 -1904,5495 -1313,1518 -2888,2273 -4874,2273l-129818 0 0 217679 129818 0c1986,0 3561,763 4874,2281 1321,1417 1904,3312 1904,5495 0,2273 -583,4078 -1904,5596 -1313,1510 -2888,2175 -4874,2175l-129818 0 0 217775 129818 0c1986,0 3561,755 4874,2273 1321,1419 1904,3323 1904,5497 0,2282 -583,4079 -1904,5597 -1313,1518 -2888,2182 -4874,2182l-138508 0c-328,-377 -821,-664 -1485,-1042 -665,-385 -1157,-763 -1494,-1140 0,-378 -164,-567 -410,-567l0 -574c-337,-377 -665,-944 -993,-1608 -328,-763 -492,-1707 -492,-2848l0 -467105c0,-3414 1321,-5785 3889,-7303l139493 0zm65771 -1043c1904,0 3561,755 4882,2183 1240,1510 1904,3315 1904,5588l0 458868 130809 0c1986,0 3553,754 4882,2461 1239,1707 1904,3414 1904,5309 0,2183 -665,4078 -1904,5498 -1329,1518 -2896,2281 -4882,2281l-137595 0c-1904,0 -3553,-763 -4874,-2281 -1239,-1420 -1904,-3315 -1904,-5498l0 -466638c0,-4078 1658,-6728 4874,-7771l1904 0zm203374 0c1904,0 3553,755 4882,2183 1239,1510 1904,3315 1904,5588l0 458868 130803 0c1994,0 3562,754 4883,2461 1239,1707 1904,3414 1904,5309 0,2183 -665,4078 -1904,5498 -1321,1518 -2889,2281 -4883,2281l-137589 0c-1904,0 -3561,-763 -4880,-2281 -1239,-1420 -1895,-3315 -1895,-5498l0 -466638c0,-4078 1649,-6728 4871,-7771l1904 0zm488482 18583c26050,12793 48377,29858 67149,51381 18682,21521 33649,47120 44817,76986 11156,29767 16695,60962 16695,93569 0,32614 -5539,63809 -16695,93577 -11168,29868 -26135,55467 -44817,76988 -18772,21422 -41099,38580 -67149,51378 -25960,12710 -53167,19152 -81605,19152 -28447,0 -55657,-6442 -81616,-19152 -26051,-12798 -48375,-29956 -67150,-51378 -18681,-21521 -33648,-47120 -44814,-76988 -11159,-29768 -16698,-60963 -16698,-93577 0,-32607 5539,-63802 16698,-93569 11166,-29866 26133,-55465 44814,-76986 18775,-21523 41099,-38588 67150,-51381 25959,-12798 53169,-19157 81616,-19157 28438,0 55645,6359 81605,19157zm-180180 26636c-30259,20199 -54154,47595 -71769,82196 -17615,34707 -26378,72343 -26378,113104 0,40771 8763,78407 26378,113016 17615,34600 41510,62095 71769,82196 30186,20194 63014,30333 98575,30333 35552,0 68380,-10139 98557,-30333 30268,-20101 54160,-47596 71775,-82196 17527,-34609 26370,-72245 26370,-113016 0,-40761 -8843,-78397 -26370,-113104 -17615,-34601 -41507,-61997 -71775,-82196 -30177,-20194 -63005,-30246 -98557,-30246 -35561,0 -68389,10052 -98575,30246z"/>
   <path class="fil0" d="M3748865 14784l214 262 427 0c15251,509 29324,5703 42237,15575 12891,9912 23016,23170 30382,39860 7369,16687 11037,34756 11037,54193 -140,19428 -3947,37365 -11455,53799 -7514,16394 -17697,29521 -30588,39343 -12888,9789 -26986,14852 -42254,15197l-47450 0 0 -263 -624 0 0 -254 -213 0c-804,-648 -1223,-1674 -1223,-3003 0,-517 140,-985 419,-1502l0 -207931c-279,-509 -419,-985 -419,-1502 0,-1674 698,-2831 2060,-3512 148,0 246,-90 386,-262l47064 0zm-43355 211188l43355 0c14317,-344 27487,-5063 39497,-14204 12013,-9138 21474,-21405 28416,-36816 6989,-15440 10509,-32179 10648,-50278 0,-18280 -3487,-35274 -10435,-50935 -6950,-15657 -16444,-28102 -28424,-37325 -12010,-9223 -25246,-14073 -39702,-14590l-43355 0 0 204148zm-3291 54956c804,0 1502,345 2068,1026 517,689 796,1502 796,2535l0 158881c139,13219 5448,24630 15960,34198 10779,9871 23744,14721 38856,14549 15156,0 28044,-4940 38695,-14803 10364,-9749 15468,-21283 15328,-34716l0 -158109c0,-2018 772,-3216 2273,-3561l583 0c845,0 1502,345 2068,1026 517,689 793,1502 793,2535l0 161884c0,517 -137,985 -375,1502l0 517c-1362,13391 -7122,24802 -17215,34198 -11595,10897 -25632,16384 -42150,16556l-796 0c-16096,0 -29931,-5276 -41515,-15826 -10511,-9527 -16452,-21285 -17814,-35183l0 -262c0,0 -33,0 -107,0 -65,0 -98,-82 -98,-255l0 -262c-140,-296 -214,-640 -214,-985l0 -162138c0,-1674 698,-2790 2060,-3307l804 0z"/>
   <path class="fil0" d="M3933944 16031c837,0 1501,345 2051,1026 566,689 812,1501 812,2535 0,985 -246,1806 -812,2487 -550,689 -1214,1034 -2051,1034l-54817 0 0 98508 54817 0c837,0 1501,345 2051,1034 566,640 812,1502 812,2486 0,1034 -246,1847 -812,2536 -550,681 -1214,985 -2051,985l-54817 0 0 98558 54817 0c837,0 1501,336 2051,1025 566,649 812,1502 812,2487 0,1033 -246,1846 -812,2535 -550,689 -1214,985 -2051,985l-58485 0c-139,-173 -353,-296 -632,-468 -279,-172 -492,-345 -631,-517 0,-172 -66,-254 -173,-254l0 -263c-139,-172 -279,-427 -418,-730 -140,-337 -214,-771 -214,-1288l0 -211394c0,-1551 567,-2618 1650,-3307l58903 0zm-56885 263396c140,172 279,344 419,517l213 0c279,336 558,771 837,1239l386 517 0 254 109042 200636 0 -199643c0,-1847 771,-3003 2273,-3520l591 0c697,0 1329,344 1953,1025 631,648 910,1502 910,2495l0 211694c0,985 -279,1847 -804,2536 -558,640 -1222,984 -2059,984 -526,0 -1084,-254 -1642,-771 -525,-476 -943,-1157 -1222,-2018l-108829 -200839 0 199854c0,853 -320,1633 -911,2404 -631,730 -1296,1116 -2067,1116 -731,0 -1395,-386 -1953,-1116 -517,-771 -805,-1551 -805,-2404l0 -212942c140,0 214,-90 214,-262 139,-345 353,-558 591,-731 139,-172 352,-336 631,-508l0 -263c140,0 279,-82 419,-254l1813 0z"/>
   <path class="fil0" d="M3358753 565360c2199,0 4111,796 5637,2388 1436,1485 2199,3471 2199,5752l0 236106 297953 0 0 -236106c0,-4661 2289,-7344 6695,-8140l1141 0c2298,0 4111,796 5645,2388 1428,1485 2200,3471 2200,5752l0 242553c377,796 566,1297 566,1691 0,796 -189,1592 -566,2379l0 241867c0,2380 -772,4267 -2200,5859 -1534,1482 -3159,2278 -5062,2278 -2208,0 -4218,-796 -5933,-2278 -1625,-1592 -2486,-3479 -2486,-5859l0 -236106 -297953 0 0 236106c0,2380 -763,4267 -2199,5859 -1526,1482 -3249,2278 -5063,2278 -2297,0 -4209,-796 -5932,-2278 -1617,-1592 -2478,-3479 -2478,-5859l0 -240775c-386,-1092 -575,-2282 -575,-3471 0,-1092 189,-2085 575,-2881l0 -241855c0,-3972 1805,-6450 5539,-7648l2297 0zm548148 -591c2297,0 4111,796 5645,2380 1526,1592 2199,3471 2199,5859 0,2281 -673,4168 -2199,5752 -1534,1592 -3348,2388 -5645,2388l-150071 0 0 227868 150071 0c2297,0 4111,787 5645,2379 1526,1485 2199,3468 2199,5750 0,2387 -673,4275 -2199,5858 -1534,1592 -3348,2282 -5645,2282l-150071 0 0 227966 150071 0c2297,0 4111,796 5645,2388 1526,1485 2199,3471 2199,5752 0,2388 -673,4267 -2199,5859 -1534,1589 -3348,2278 -5645,2278l-160103 0c-394,-394 -960,-689 -1724,-1088 -771,-394 -1337,-796 -1723,-1190 0,-394 -197,-599 -476,-599l0 -591c-385,-402 -771,-993 -1148,-1690 -386,-796 -575,-1789 -575,-2979l0 -488982c0,-3570 1535,-6056 4497,-7640l161252 0zm159495 0c36225,1986 66616,16379 91280,43069 24663,26797 36036,58164 34223,94184 -1527,29078 -11751,54685 -30875,76824 -19029,22030 -42724,36420 -71121,42968l136128 235507c1527,1592 2191,3381 2191,5260 0,2388 -763,4275 -2486,5859 -1616,1490 -3438,2278 -5350,2278 -3734,0 -6310,-1682 -7845,-5257l-138883 -241268c-6310,796 -9847,1092 -10618,1092l-71113 0 0 236106c0,2388 -771,4267 -2289,5859 -1444,1589 -3356,2278 -5555,2278 -2290,0 -4103,-689 -5635,-2278 -1436,-1592 -2199,-3471 -2199,-5859l0 -240669c-763,-1190 -1149,-2379 -1149,-3577 0,-1092 386,-2282 1149,-3471l0 -237195c-377,-1190 -566,-2380 -566,-3471 0,-2782 1141,-5063 3340,-7049l571 0c386,-394 960,-599 1625,-599l0 -591 85177 0zm-74469 244247l70547 0c30580,-698 56876,-11513 78667,-32262 21885,-20744 33551,-46048 35085,-75823 1428,-31458 -8515,-58854 -30014,-82368 -21512,-23427 -48465,-35930 -80973,-37415l-73312 0 0 227868zm572237 -244747l582 0c378,0 862,205 1625,500l575 0c385,0 951,197 1715,591 385,402 771,796 1058,1198 378,394 763,788 1141,1190 0,394 188,788 582,1091l0 591c0,796 189,1395 566,1789l0 2281 61562 486209 0 1091c0,2380 -673,4267 -2199,5851 -1535,1592 -3348,2385 -5646,2385 -1813,0 -3528,-695 -4964,-2082 -1526,-1395 -2486,-2978 -2869,-4964l-56018 -441343 -92912 441934c0,2388 -763,4275 -2289,5859 -1436,1490 -3348,2278 -5547,2278 -2298,0 -4109,-788 -5643,-2278 -1526,-1584 -2199,-3471 -2199,-5859l-93003 -441934 -56017 441343c-386,1986 -1346,3569 -2774,4964 -1534,1387 -3148,2082 -5068,2082 -2191,0 -4103,-793 -5637,-2385 -1436,-1584 -2199,-3471 -2199,-5851l0 -1091 61660 -488490c664,-4267 3151,-6548 7262,-6950l574 0c4398,0 7071,2084 7842,6351l95202 451272 95210 -450074 0 -1789 566 -599 0 -591c0,-303 189,-500 484,-500 763,-1584 1904,-2577 3438,-2979 378,-394 673,-689 1050,-1091l1149 0c386,-394 763,-591 1141,-591l0 591zm467199 18865c30112,13388 55916,31260 77617,53782 21603,22530 38908,49327 51807,80588 12905,31165 19306,63818 19306,97958 0,34141 -6401,66789 -19306,97951 -12899,31269 -30204,58069 -51807,80590 -21701,22432 -47505,40394 -77617,53791 -30016,13301 -61466,20055 -94349,20055 -32877,0 -64335,-6754 -94351,-20055 -30104,-13397 -55916,-31359 -77617,-53791 -21594,-22521 -38908,-49321 -51805,-80590 -12899,-31162 -19308,-63810 -19308,-97951 0,-34140 6409,-66793 19308,-97958 12897,-31261 30211,-58058 51805,-80588 21701,-22522 47513,-40394 77617,-53782 30016,-13400 61474,-20055 94351,-20055 32883,0 64333,6655 94349,20055zm-208284 27880c-34994,21143 -62620,49827 -82984,86052 -20358,36324 -30489,75724 -30489,118396 0,42675 10131,82076 30489,118301 20364,36225 47990,65008 82984,86044 34888,21144 72836,31762 113935,31762 41105,0 79053,-10618 113941,-31762 34986,-21036 62612,-49819 82975,-86044 20268,-36225 30490,-75626 30490,-118301 0,-42672 -10222,-82072 -30490,-118396 -20363,-36225 -47989,-64909 -82975,-86052 -34888,-21138 -72836,-31655 -113941,-31655 -41099,0 -79047,10517 -113935,31655zm636087 -15681c21505,22335 32213,49132 32213,80590 0,2281 -763,4267 -2199,5760 -1526,1584 -3438,2380 -5637,2380 -2200,0 -4109,-796 -5643,-2380 -1428,-1493 -2199,-3479 -2199,-5760 0,-27191 -9174,-50216 -27437,-69275 -18348,-18952 -40525,-28479 -66616,-28479 -26201,0 -48378,9527 -66723,28479 -18266,19059 -27437,42084 -27437,69275 0,27092 9171,50123 27437,69176 18345,18952 40522,28479 66723,28479l3919 0c38039,1198 70440,15982 97114,44461 26676,28487 40049,62530 40049,102127 0,40296 -13766,74732 -41387,103416 -27724,28783 -60888,43069 -99695,43069 -38909,0 -72081,-14286 -99699,-43069 -27634,-28684 -41493,-63120 -41493,-103416 0,-2379 763,-4267 2199,-5858 1535,-1584 3447,-2380 5637,-2380 2200,0 4111,796 5646,2380 1436,1591 2199,3479 2199,5858 0,36029 12232,66690 36707,92100 24469,25402 54006,38113 88804,38113 34690,0 64228,-12711 88703,-38113 24466,-25410 36701,-56071 36701,-92100 0,-35330 -11849,-65598 -35553,-90713 -23703,-25205 -52579,-38408 -86514,-39598l-3337 0c-30309,0 -56124,-11115 -77620,-33443 -21513,-22235 -32213,-49130 -32213,-80489 0,-31458 10700,-58255 32213,-80590 21496,-22325 47311,-33444 77620,-33444 30202,0 56014,11119 77518,33444zm461357 -12199c30120,13388 55916,31260 77617,53782 21605,22530 38908,49327 51816,80588 12904,31165 19305,63818 19305,97958 0,34141 -6401,66789 -19305,97951 -12908,31269 -30211,58069 -51816,80590 -21701,22432 -47497,40394 -77617,53791 -30014,13301 -61455,20055 -94340,20055 -32886,0 -64335,-6754 -94349,-20055 -30112,-13397 -55927,-31359 -77628,-53791 -21594,-22521 -38900,-49321 -51805,-80590 -12899,-31162 -19308,-63810 -19308,-97951 0,-34140 6409,-66793 19308,-97958 12905,-31261 30211,-58058 51805,-80588 21701,-22522 47516,-40394 77628,-53782 30014,-13400 61463,-20055 94349,-20055 32885,0 64326,6655 94340,20055zm-208284 27880c-34994,21143 -62612,49827 -82975,86052 -20358,36324 -30490,75724 -30490,118396 0,42675 10132,82076 30490,118301 20363,36225 47981,65008 82975,86044 34888,21144 72836,31762 113944,31762 41096,0 79044,-10618 113940,-31762 34986,-21036 62612,-49819 82970,-86044 20265,-36225 30498,-75626 30498,-118301 0,-42672 -10233,-82072 -30498,-118396 -20358,-36225 -47984,-64909 -82970,-86052 -34896,-21138 -72844,-31655 -113940,-31655 -41108,0 -79056,10517 -113944,31655z"/>
   <path class="fil0" d="M174673 477773c2117,0 3797,862 5200,2601 1420,1740 2035,3800 2035,6401 0,2502 -615,4562 -2035,6302 -1403,1728 -3083,2598 -5200,2598l-138664 0 0 249178 138664 0c2117,0 3797,870 5200,2601 1420,1633 2035,3797 2035,6291 0,2610 -615,4669 -2035,6409 -1403,1731 -3083,2494 -5200,2494l-138664 0 0 249282 138664 0c2117,0 3797,870 5200,2601 1420,1633 2035,3799 2035,6302 0,2601 -615,4661 -2035,6401 -1403,1739 -3083,2494 -5200,2494l-147936 0c-353,-435 -878,-755 -1592,-1190 -706,-435 -1231,-870 -1584,-1304 0,-435 -180,-649 -443,-649l0 -656c-353,-435 -706,-1083 -1059,-1846 -361,-862 -533,-1953 -533,-3250l0 -534706c0,-3906 1411,-6622 4152,-8354l148995 0zm265067 33419c19874,24417 29767,53725 29767,88129 0,2494 -705,4660 -2026,6293 -1420,1732 -3181,2601 -5216,2601 -2027,0 -3791,-869 -5203,-2601 -1329,-1633 -2035,-3799 -2035,-6293 0,-29743 -8476,-54915 -25344,-75755 -16961,-20727 -37456,-31146 -61562,-31146 -24198,0 -44685,10419 -61646,31146 -16868,20840 -25344,46012 -25344,75755 0,29627 8476,54800 25344,75642 16961,20725 37448,31146 61646,31146l3624 0c35151,1304 65090,17467 89724,48613 24647,31154 37002,68372 37002,111678 0,44059 -12708,81720 -38233,113080 -25618,31474 -56255,47105 -92117,47105 -35946,0 -66591,-15631 -92111,-47105 -25533,-31360 -38331,-69021 -38331,-113080 0,-2609 706,-4669 2035,-6408 1403,-1732 3173,-2601 5208,-2601 2027,0 3799,869 5202,2601 1330,1739 2043,3799 2043,6408 0,39393 11300,72927 33912,100708 22603,27782 49895,41671 82042,41671 32065,0 59354,-13889 81958,-41671 22612,-27781 33911,-61315 33911,-100708 0,-38637 -10946,-71736 -32852,-99189 -21907,-27569 -48575,-42002 -79926,-43307l-3091 0c-27997,0 -51840,-12150 -71712,-36570 -19874,-24310 -29759,-53725 -29759,-88013 0,-34404 9885,-63712 29759,-88129 19872,-24417 43715,-36570 71712,-36570 27905,0 51756,12153 71619,36570z"/>
   <path class="fil1" style="mask:url(#id0)" d="M31704 343042c44860,1283 471288,20580 506279,-18733 27060,-81515 -239054,-38430 -305755,-47043 -19623,-2533 -228336,-24412 -232009,-45621 -9100,-52549 268775,-27757 311623,-74597 -257110,-83887 -74264,-54789 -53425,-86157 6677,-10049 -53418,-45486 -55803,-47002 146087,62697 -11100,62579 -17095,78088 5984,11250 78771,28055 78771,28055 208683,61720 -159436,70760 -237572,96113 48711,7412 205584,30492 210786,31083 57852,6564 330840,-40224 324183,54947 -7648,109250 -476912,61756 -529983,60703 -6712,0 -12153,-6680 -12153,-14918 0,-8238 5441,-14918 12153,-14918z"/>
   <path class="fil2" d="M3617890 54081c-3731,-7577 -22637,-16250 -31009,-18660 -11485,-3304 -25137,-3996 -39483,-25 -15416,4267 -27311,12864 -36890,23507 -7697,8553 -12587,18110 -16020,28517 -197,596 -536,1953 -643,2240l-1627 2932c-7043,-6498 -22292,-11340 -33786,-12376 -42899,-3868 -78883,29154 -82770,72797 -2855,32054 13203,60104 35604,74650 22487,14600 20681,15366 47675,27934 3575,1663 13343,6795 16570,7287 2114,1425 2361,1162 4724,2084l34297 12563c13268,4324 26545,7902 40689,11666 12278,3266 9269,3747 16709,-6450 12038,-16507 36835,-56709 44108,-74833 2730,-6802 6365,-12694 9067,-19775 8890,-23301 20848,-61392 16953,-88027 -2243,-15334 -7002,-26196 -15982,-37932 -2051,-2681 -5183,-6992 -8186,-8099z"/>
  </g>
 </g>
</svg>
