<?xml version="1.0" encoding="UTF-8"?>
<!DOCTYPE svg PUBLIC "-//W3C//DTD SVG 1.1//EN" "http://www.w3.org/Graphics/SVG/1.1/DTD/svg11.dtd">
<!-- Creator: CorelDRAW X7 -->
<svg xmlns="http://www.w3.org/2000/svg" xml:space="preserve" width="2.9132mm" height="4.2497mm" version="1.1" style="shape-rendering:geometricPrecision; text-rendering:geometricPrecision; image-rendering:optimizeQuality; fill-rule:evenodd; clip-rule:evenodd"
viewBox="0 0 102 148"
 xmlns:xlink="http://www.w3.org/1999/xlink">
 <defs>
  <style type="text/css">
   <![CDATA[
    .fil0 {fill:#373435}
   ]]>
  </style>
 </defs>
 <g id="Capa_x0020_1">
  <metadata id="CorelCorpID_0Corel-Layer"/>
  <path class="fil0" d="M34 1c-13,-2 -17,1 -24,8 -8,9 -10,17 -10,29 0,19 2,29 8,46 7,16 19,36 34,48 6,5 15,13 25,15 14,3 30,-1 34,-16 2,-6 -8,-13 -15,-21 -10,-12 -8,-9 -22,-2 -4,3 -8,6 -12,1 -12,-13 -22,-28 -25,-45 -3,-14 -6,-16 8,-20 16,-6 12,-7 9,-21 -3,-17 -1,-21 -10,-22z"/>
 </g>
</svg>
