<?xml version="1.0" encoding="UTF-8"?>
<!DOCTYPE svg PUBLIC "-//W3C//DTD SVG 1.1//EN" "http://www.w3.org/Graphics/SVG/1.1/DTD/svg11.dtd">
<!-- Creator: CorelDRAW X7 -->
<svg xmlns="http://www.w3.org/2000/svg" xml:space="preserve" width="4.027mm" height="6.4408mm" version="1.1" style="shape-rendering:geometricPrecision; text-rendering:geometricPrecision; image-rendering:optimizeQuality; fill-rule:evenodd; clip-rule:evenodd"
viewBox="0 0 3455 5525"
 xmlns:xlink="http://www.w3.org/1999/xlink">
 <defs>
  <style type="text/css">
   <![CDATA[
    .fil0 {fill:#486D97}
   ]]>
  </style>
 </defs>
 <g id="Capa_x0020_1">
  <metadata id="CorelCorpID_0Corel-Layer"/>
  <path class="fil0" d="M1159 23c-428,-76 -566,37 -824,330 -279,316 -335,621 -335,1047 1,726 58,1085 287,1715 224,616 625,1343 1125,1797 232,212 527,505 868,582 492,111 1021,-66 1169,-615 54,-201 -299,-483 -527,-785 -344,-455 -282,-339 -747,-50 -130,82 -254,203 -416,15 -409,-476 -727,-1040 -849,-1669 -105,-539 -187,-584 293,-766 519,-196 387,-231 294,-755 -112,-635 -32,-792 -338,-846z"/>
 </g>
</svg>
