<?xml version="1.0" encoding="UTF-8"?>
<!DOCTYPE svg PUBLIC "-//W3C//DTD SVG 1.1//EN" "http://www.w3.org/Graphics/SVG/1.1/DTD/svg11.dtd">
<!-- Creator: CorelDRAW X7 -->
<svg xmlns="http://www.w3.org/2000/svg" xml:space="preserve" width="132.72mm" height="23.4139mm" version="1.1" style="shape-rendering:geometricPrecision; text-rendering:geometricPrecision; image-rendering:optimizeQuality; fill-rule:evenodd; clip-rule:evenodd"
viewBox="0 0 265722 46878"
 xmlns:xlink="http://www.w3.org/1999/xlink">
 <defs>
  <style type="text/css">
   <![CDATA[
    .fil1 {fill:#506C98}
    .fil2 {fill:#D92E7C}
    .fil0 {fill:#506C98;fill-rule:nonzero}
   ]]>
  </style>
    <mask id="id0">
  <linearGradient id="id1" gradientUnits="userSpaceOnUse" x1="12385.2" y1="7710.01" x2="12211.8" y2="10149.8">
   <stop offset="0" style="stop-opacity:1; stop-color:white"/>
   <stop offset="1" style="stop-opacity:0; stop-color:white"/>
  </linearGradient>
     <rect style="fill:url(#id1)" x="-200" y="846" width="24997" height="16169"/>
    </mask>
 </defs>
 <g id="Capa_x0020_1">
  <metadata id="CorelCorpID_0Corel-Layer"/>
  <g id="_2420737668768">
   <path class="fil0" d="M44451 1044c135,0 252,72 347,214 88,143 135,313 135,528 0,242 -47,429 -135,572 -95,143 -212,206 -347,206l-9158 0 0 43168c0,215 -41,385 -135,528 -94,143 -206,214 -347,214 -134,0 -252,-71 -340,-214 -95,-143 -142,-313 -142,-528l0 -43168 -9221 0c-135,0 -253,-63 -347,-206 -88,-143 -135,-330 -135,-572 0,-420 135,-670 411,-742l19414 0zm6920 214c135,0 252,72 347,206 88,143 135,322 135,528l0 44009c0,205 -47,384 -135,519 -95,142 -212,214 -347,214 -135,0 -252,-72 -347,-214 -87,-135 -135,-314 -135,-519l0 -44063c0,-349 118,-572 347,-680l135 0zm16625 -214c141,0 252,72 346,214 94,143 135,313 135,528 0,206 -41,376 -135,518 -94,143 -205,215 -346,215l-9223 0 0 20530 9223 0c141,0 252,71 346,214 94,134 135,312 135,519 0,214 -41,384 -135,527 -94,143 -205,206 -346,206l-9223 0 0 20538 9223 0c141,0 252,72 346,215 94,134 135,312 135,518 0,215 -41,385 -135,528 -94,143 -205,206 -346,206l-9840 0c-23,-37 -58,-63 -105,-99 -47,-36 -83,-71 -107,-107 0,-37 -11,-54 -28,-54l0 -54c-24,-35 -47,-89 -71,-151 -23,-72 -35,-161 -35,-269l0 -44054c0,-321 94,-546 276,-688l9910 0zm23373 -45l35 0c24,0 53,18 100,45l36 0c23,0 59,18 106,53 23,36 46,72 63,107 24,37 48,72 71,108 0,36 12,71 36,99l0 53c0,72 12,125 35,161l0 205 3783 43804 0 98c0,215 -41,385 -136,528 -94,143 -204,214 -346,214 -112,0 -218,-62 -305,-188 -94,-124 -153,-267 -177,-446l-3442 -39763 -5709 39817c0,214 -47,383 -141,527 -89,134 -206,206 -341,206 -141,0 -253,-72 -346,-206 -95,-144 -135,-313 -135,-527l-5716 -39817 -3443 39763c-23,179 -82,322 -170,446 -94,126 -194,188 -311,188 -135,0 -253,-71 -347,-214 -88,-143 -135,-313 -135,-528l0 -98 3789 -44009c41,-384 193,-590 446,-626l36 0c270,0 434,187 481,572l5851 40657 5850 -40550 0 -160 36 -54 0 -53c0,-28 11,-45 29,-45 47,-143 117,-233 212,-269 23,-35 41,-62 64,-98l71 0c24,-36 47,-54 70,-54l0 54zm15973 45c2243,179 4129,1475 5639,3880 1404,2200 2103,4766 2103,7699 0,250 -12,509 -36,787 -93,3076 -899,5677 -2426,7805 -1527,2137 -3354,3237 -5492,3300l-4576 0 0 21271c0,215 -47,385 -135,528 -94,143 -212,206 -347,206 -135,0 -252,-63 -347,-206 -88,-143 -134,-313 -134,-528l0 -44054c0,-349 117,-581 346,-688l5405 0zm-4788 22005l4541 0c1885,-63 3495,-1038 4840,-2907 1340,-1868 2056,-4148 2150,-6830 111,-2835 -493,-5303 -1827,-7422 -1327,-2110 -2978,-3236 -4952,-3371l-4752 0 0 20530zm39216 -20351c1851,1207 3437,2816 4770,4846 1328,2030 2391,4444 3184,7260 790,2797 1183,5727 1186,8790l-963 0c-4,-3832 -632,-7369 -1874,-10631 -1251,-3264 -2949,-5848 -5099,-7752 -2144,-1905 -4476,-2853 -7002,-2853 -2525,0 -4858,948 -7002,2853 -2150,1904 -3847,4488 -5099,7752 -1251,3272 -1873,6821 -1873,10667 0,3844 622,7394 1873,10657 1252,3264 2949,5857 5099,7752 2144,1905 4477,2862 7002,2862 2452,0 4721,-902 6813,-2696l0 1633c-329,256 -667,497 -1015,723 -1844,1199 -3777,1806 -5798,1806 -2020,0 -3953,-607 -5798,-1806 -1850,-1207 -3436,-2825 -4770,-4846 -1327,-2029 -2390,-4444 -3183,-7260 -793,-2808 -1187,-5750 -1187,-8825 0,-3076 394,-6018 1187,-8826 793,-2816 1856,-5230 3183,-7260 1334,-2030 2920,-3639 4770,-4846 1845,-1207 3778,-1806 5798,-1806 2021,0 3954,599 5798,1806z"/>
   <path class="fil0" d="M186594 121c1766,0 3399,543 4898,1631 87,79 127,187 127,315 0,96 -26,179 -84,245 -57,63 -126,96 -213,96 -69,0 -127,-17 -170,-50 -1315,-955 -2734,-1470 -4261,-1544 -1528,-71 -2973,295 -4330,1096 -1358,801 -2451,1959 -3287,3466 -833,1506 -1282,3142 -1347,4898 -62,1759 257,3420 967,4976 705,1557 1716,2810 3033,3769 1709,1250 3566,1743 5568,1482 1998,-258 3715,-1208 5145,-2843 54,-50 119,-75 188,-75 73,0 138,33 202,99 66,63 95,146 95,241 0,83 -18,146 -62,195 -1528,1752 -3359,2765 -5496,3043 -380,29 -749,46 -1100,46 -1727,0 -3345,-536 -4859,-1603 -1400,-1025 -2476,-2370 -3225,-4038 -691,-1540 -1039,-3172 -1039,-4890 0,-129 7,-274 22,-436 58,-1867 528,-3607 1419,-5230 836,-1506 1918,-2689 3247,-3540 1329,-851 2752,-1300 4265,-1349l297 0zm15160 634l21 21c15,0 29,9 44,25l18 0 0 25 21 0 0 25 22 0c14,33 29,66 44,96 0,16 3,29 10,37 8,8 11,21 11,37l0 50 5938 19650 0 120c0,100 -29,179 -84,245 -58,67 -127,96 -213,96 -142,0 -239,-79 -297,-241l-2056 -6862 -7172 0 -2056 6862c-58,162 -156,241 -297,241 -84,0 -156,-29 -214,-96 -54,-66 -83,-145 -83,-245l0 -120 5941 -19675 0 -25c0,-16 3,-29 10,-37 8,-8 11,-21 11,-37l0 -46c11,0 19,-8 19,-25l0 -25c14,0 29,-8 43,-25 14,-16 29,-25 43,-25 15,-33 36,-46 62,-46l214 0zm-3458 12523l6701 0 -3348 -11115 -3353 11115zm14207 -13253c26,17 48,25 62,25 1343,129 2465,743 3363,1847 898,1104 1311,2391 1242,3869 -44,1004 -318,1913 -829,2722 -510,810 -1166,1437 -1973,1872 1104,245 2031,831 2781,1765 749,929 1151,2021 1209,3270l0 316c0,1378 -424,2586 -1275,3624 -934,1120 -2092,1718 -3479,1801l-3182 0c-29,0 -54,-8 -83,-25l-22 0 0 -25 -22 0c-83,-66 -126,-162 -126,-290 0,-67 14,-125 43,-171l0 -9849c-29,-50 -43,-117 -43,-195 0,-67 14,-125 43,-171l0 -9850c-29,-49 -43,-107 -43,-170 0,-133 43,-228 126,-294 29,-17 51,-30 65,-46l22 0c15,0 22,-4 29,-13 7,-8 19,-12 33,-12l2059 0zm-1697 10215l1462 0c1159,-33 2154,-486 2980,-1353 829,-868 1270,-1922 1329,-3171 68,-1316 -301,-2458 -1115,-3429 -815,-975 -1836,-1502 -3067,-1581l-1589 0 0 9534zm0 10215l2777 0c1230,-83 2252,-610 3066,-1581 814,-976 1183,-2117 1115,-3429 -58,-1233 -496,-2283 -1318,-3150 -818,-868 -1810,-1329 -2968,-1374l-2672 0 0 9534zm16112 -20384c87,0 155,33 213,99 58,67 83,146 83,245 0,96 -25,174 -83,241 -58,66 -126,99 -213,99l-5684 0 0 9531 5684 0c87,0 155,33 213,99 58,63 83,146 83,241 0,100 -25,179 -83,245 -58,66 -126,95 -213,95l-5684 0 0 9535 5684 0c87,0 155,33 213,100 58,62 83,145 83,240 0,100 -25,179 -83,245 -58,67 -126,96 -213,96l-6065 0c-14,-17 -35,-29 -64,-46 -30,-17 -51,-33 -66,-50 0,-16 -7,-25 -18,-25l0 -25c-15,-16 -29,-41 -43,-70 -15,-34 -22,-75 -22,-125l0 -20451c0,-149 58,-253 170,-319l6108 0zm2879 -46c83,0 156,33 214,96 54,66 83,145 83,244l0 20090 5727 0c87,0 156,33 214,108 54,75 84,150 84,233 0,95 -30,178 -84,240 -58,67 -127,100 -214,100l-6024 0c-83,0 -155,-33 -213,-100 -55,-62 -84,-145 -84,-240l0 -20431c0,-178 73,-294 214,-340l83 0zm8904 0c84,0 156,33 214,96 54,66 83,145 83,244l0 20090 5727 0c87,0 156,33 214,108 54,75 83,150 83,233 0,95 -29,178 -83,240 -58,67 -127,100 -214,100l-6024 0c-83,0 -156,-33 -213,-100 -55,-62 -83,-145 -83,-240l0 -20431c0,-178 72,-294 213,-340l83 0zm21387 814c1140,560 2118,1307 2940,2249 818,942 1473,2063 1962,3371 488,1303 731,2669 731,4096 0,1428 -243,2794 -731,4097 -489,1308 -1144,2429 -1962,3371 -822,938 -1800,1689 -2940,2250 -1137,556 -2328,838 -3573,838 -1246,0 -2437,-282 -3573,-838 -1141,-561 -2118,-1312 -2940,-2250 -818,-942 -1473,-2063 -1962,-3371 -489,-1303 -731,-2669 -731,-4097 0,-1427 242,-2793 731,-4096 489,-1308 1144,-2429 1962,-3371 822,-942 1799,-1689 2940,-2249 1136,-561 2327,-839 3573,-839 1245,0 2436,278 3573,839zm-7889 1166c-1325,884 -2371,2084 -3142,3599 -771,1519 -1155,3167 -1155,4951 0,1786 384,3433 1155,4949 771,1514 1817,2718 3142,3598 1322,884 2759,1328 4316,1328 1556,0 2994,-444 4315,-1328 1325,-880 2371,-2084 3142,-3598 768,-1516 1155,-3163 1155,-4949 0,-1784 -387,-3432 -1155,-4951 -771,-1515 -1817,-2715 -3142,-3599 -1321,-884 -2759,-1324 -4315,-1324 -1557,0 -2994,440 -4316,1324z"/>
   <path class="fil0" d="M164131 647l10 12 18 0c668,22 1284,250 1849,682 565,433 1008,1014 1331,1745 322,730 483,1522 483,2372 -6,851 -173,1636 -502,2356 -329,718 -774,1292 -1339,1722 -564,429 -1181,650 -1850,666l-2077 0 0 -12 -28 0 0 -11 -9 0c-35,-28 -53,-73 -53,-132 0,-22 6,-43 18,-65l0 -9104c-12,-22 -18,-43 -18,-66 0,-73 30,-123 90,-153 6,0 11,-4 17,-12l2060 0zm-1898 9246l1898 0c627,-15 1204,-221 1730,-621 525,-401 940,-938 1243,-1612 307,-676 461,-1409 467,-2202 0,-800 -153,-1544 -457,-2230 -304,-685 -720,-1230 -1244,-1634 -526,-404 -1106,-616 -1739,-638l-1898 0 0 8937zm-144 2406c35,0 66,16 91,45 22,31 34,66 34,111l0 6956c6,579 239,1079 699,1498 472,432 1040,644 1701,637 664,0 1228,-217 1694,-648 454,-427 678,-932 672,-1520l0 -6923c0,-88 33,-140 99,-156l25 0c37,0 66,16 91,45 23,31 35,66 35,111l0 7088c0,23 -6,43 -17,66l0 22c-59,587 -311,1086 -753,1497 -508,478 -1122,718 -1846,725l-34 0c-705,0 -1311,-231 -1818,-692 -460,-418 -720,-932 -780,-1541l0 -11c0,0 -1,0 -5,0 -3,0 -4,-4 -4,-12l0 -11c-6,-13 -9,-28 -9,-43l0 -7099c0,-73 30,-122 90,-145l35 0z"/>
   <path class="fil0" d="M172234 702c37,0 66,15 90,45 25,30 36,65 36,111 0,43 -11,79 -36,109 -24,30 -53,45 -90,45l-2400 0 0 4313 2400 0c37,0 66,15 90,45 25,28 36,66 36,109 0,45 -11,81 -36,111 -24,30 -53,43 -90,43l-2400 0 0 4315 2400 0c37,0 66,15 90,45 25,28 36,66 36,109 0,45 -11,81 -36,111 -24,30 -53,43 -90,43l-2560 0c-6,-8 -16,-13 -28,-21 -12,-7 -21,-15 -28,-22 0,-8 -2,-11 -7,-11l0 -12c-6,-7 -12,-19 -18,-32 -7,-15 -10,-34 -10,-56l0 -9255c0,-68 25,-115 72,-145l2579 0zm-2490 11532c6,7 12,15 18,22l9 0c13,15 25,34 37,55l17 22 0 11 4774 8784 0 -8740c0,-81 34,-132 100,-154l25 0c31,0 59,15 86,45 27,28 40,65 40,109l0 9268c0,43 -13,81 -35,111 -25,28 -54,43 -91,43 -23,0 -47,-11 -72,-33 -23,-21 -41,-51 -53,-89l-4765 -8793 0 8750c0,37 -14,72 -40,105 -27,32 -56,49 -90,49 -32,0 -61,-17 -86,-49 -22,-33 -35,-68 -35,-105l0 -9323c6,0 10,-4 10,-11 6,-16 15,-25 25,-32 7,-8 16,-15 28,-23l0 -11c6,0 12,-4 18,-11l80 0z"/>
   <path class="fil0" d="M147052 24752c96,0 180,35 246,105 63,65 96,152 96,252l0 10337 13045 0 0 -10337c0,-204 101,-322 294,-357l50 0c100,0 180,35 247,105 62,65 96,152 96,252l0 10619c17,35 25,57 25,74 0,35 -8,70 -25,104l0 10589c0,105 -34,187 -96,257 -67,65 -139,100 -222,100 -97,0 -185,-35 -260,-100 -71,-70 -109,-152 -109,-257l0 -10337 -13045 0 0 10337c0,105 -33,187 -96,257 -66,65 -142,100 -221,100 -101,0 -185,-35 -260,-100 -71,-70 -109,-152 -109,-257l0 -10541c-16,-48 -25,-100 -25,-152 0,-48 9,-91 25,-126l0 -10589c0,-174 79,-282 243,-335l101 0zm23998 -25c101,0 180,34 247,104 67,69 97,152 97,256 0,100 -30,183 -97,252 -67,70 -146,104 -247,104l-6570 0 0 9977 6570 0c101,0 180,34 247,104 67,65 97,152 97,252 0,104 -30,187 -97,256 -67,70 -146,100 -247,100l-6570 0 0 9981 6570 0c101,0 180,35 247,105 67,64 97,152 97,251 0,105 -30,187 -97,257 -67,70 -146,100 -247,100l-7009 0c-18,-18 -42,-30 -76,-48 -34,-17 -58,-35 -75,-52 0,-17 -9,-26 -21,-26l0 -26c-17,-18 -34,-44 -50,-74 -17,-35 -25,-78 -25,-131l0 -21408c0,-156 67,-265 196,-334l7060 0zm6983 0c1586,86 2917,716 3997,1885 1079,1173 1577,2547 1498,4124 -67,1273 -514,2394 -1352,3363 -833,965 -1870,1595 -3114,1881l5960 10311c67,70 96,148 96,231 0,104 -33,187 -109,256 -70,65 -150,100 -234,100 -163,0 -276,-74 -343,-231l-6081 -10563c-276,35 -431,48 -465,48l-3113 0 0 10337c0,105 -34,187 -100,257 -64,70 -147,100 -244,100 -100,0 -179,-30 -246,-100 -63,-70 -97,-152 -97,-257l0 -10536c-33,-53 -50,-105 -50,-157 0,-48 17,-100 50,-152l0 -10385c-16,-52 -24,-104 -24,-152 0,-122 50,-222 146,-308l25 0c17,-18 42,-27 71,-27l0 -25 3729 0zm-3260 10693l3089 0c1338,-31 2490,-504 3444,-1413 958,-908 1469,-2016 1536,-3319 62,-1377 -373,-2577 -1314,-3606 -942,-1026 -2122,-1573 -3545,-1639l-3210 0 0 9977zm25053 -10715l26 0c16,0 38,9 71,22l25 0c17,0 42,8 75,25 17,18 34,35 47,53 16,17 33,34 49,52 0,17 9,34 26,48l0 26c0,34 8,61 25,78l0 100 2695 21287 0 47c0,105 -30,187 -96,257 -67,69 -147,104 -247,104 -80,0 -155,-30 -218,-91 -67,-61 -109,-130 -125,-218l-2453 -19322 -4068 19349c0,104 -33,187 -100,256 -63,65 -147,100 -243,100 -100,0 -180,-35 -247,-100 -67,-69 -96,-152 -96,-256l-4072 -19349 -2452 19322c-17,88 -59,157 -122,218 -67,61 -138,91 -222,91 -96,0 -180,-35 -247,-104 -63,-70 -96,-152 -96,-257l0 -47 2700 -21387c29,-187 137,-287 317,-304l26 0c192,0 309,91 343,278l4168 19757 4169 -19705 0 -78 24 -26 0 -26c0,-14 9,-22 22,-22 33,-70 83,-113 150,-131 17,-17 30,-30 46,-47l50 0c17,-18 34,-26 50,-26l0 26zm20455 825c1318,587 2448,1369 3398,2355 946,987 1704,2160 2268,3528 565,1365 846,2795 846,4289 0,1495 -281,2924 -846,4289 -564,1369 -1322,2542 -2268,3528 -950,982 -2080,1768 -3398,2355 -1314,582 -2691,878 -4131,878 -1439,0 -2817,-296 -4131,-878 -1318,-587 -2448,-1373 -3398,-2355 -945,-986 -1703,-2159 -2268,-3528 -565,-1365 -845,-2794 -845,-4289 0,-1494 280,-2924 845,-4289 565,-1368 1323,-2541 2268,-3528 950,-986 2080,-1768 3398,-2355 1314,-586 2692,-878 4131,-878 1440,0 2817,292 4131,878zm-9119 1221c-1532,926 -2742,2182 -3633,3768 -891,1590 -1335,3315 -1335,5183 0,1869 444,3594 1335,5180 891,1586 2101,2846 3633,3767 1527,926 3189,1390 4988,1390 1800,0 3461,-464 4989,-1390 1532,-921 2741,-2181 3633,-3767 887,-1586 1334,-3311 1334,-5180 0,-1868 -447,-3593 -1334,-5183 -892,-1586 -2101,-2842 -3633,-3768 -1528,-925 -3189,-1386 -4989,-1386 -1799,0 -3461,461 -4988,1386zm27849 -686c941,977 1410,2151 1410,3528 0,100 -33,187 -96,252 -67,69 -151,104 -247,104 -96,0 -180,-35 -247,-104 -62,-65 -96,-152 -96,-252 0,-1191 -402,-2198 -1202,-3033 -803,-830 -1774,-1247 -2916,-1247 -1147,0 -2118,417 -2921,1247 -800,835 -1201,1842 -1201,3033 0,1186 401,2194 1201,3029 803,829 1774,1246 2921,1246l172 0c1665,53 3084,700 4251,1947 1168,1247 1754,2738 1754,4471 0,1765 -603,3272 -1812,4528 -1214,1260 -2666,1886 -4365,1886 -1703,0 -3156,-626 -4365,-1886 -1210,-1256 -1817,-2763 -1817,-4528 0,-104 34,-187 97,-256 67,-69 151,-104 247,-104 96,0 180,35 247,104 62,69 96,152 96,256 0,1578 536,2920 1607,4033 1071,1112 2365,1668 3888,1668 1519,0 2812,-556 3884,-1668 1071,-1113 1606,-2455 1606,-4033 0,-1546 -518,-2872 -1556,-3971 -1038,-1104 -2302,-1682 -3788,-1734l-146 0c-1327,0 -2457,-487 -3398,-1464 -942,-974 -1411,-2151 -1411,-3524 0,-1377 469,-2551 1411,-3528 941,-978 2071,-1465 3398,-1465 1322,0 2452,487 3394,1465zm20199 -535c1318,587 2448,1369 3398,2355 946,987 1704,2160 2269,3528 565,1365 845,2795 845,4289 0,1495 -280,2924 -845,4289 -565,1369 -1323,2542 -2269,3528 -950,982 -2080,1768 -3398,2355 -1314,582 -2691,878 -4131,878 -1439,0 -2816,-296 -4130,-878 -1319,-587 -2449,-1373 -3399,-2355 -945,-986 -1703,-2159 -2268,-3528 -565,-1365 -845,-2794 -845,-4289 0,-1494 280,-2924 845,-4289 565,-1368 1323,-2541 2268,-3528 950,-986 2080,-1768 3399,-2355 1314,-586 2691,-878 4130,-878 1440,0 2817,292 4131,878zm-9119 1221c-1532,926 -2741,2182 -3633,3768 -891,1590 -1335,3315 -1335,5183 0,1869 444,3594 1335,5180 892,1586 2101,2846 3633,3767 1527,926 3189,1390 4988,1390 1800,0 3461,-464 4989,-1390 1532,-921 2741,-2181 3632,-3767 888,-1586 1336,-3311 1336,-5180 0,-1868 -448,-3593 -1336,-5183 -891,-1586 -2100,-2842 -3632,-3768 -1528,-925 -3189,-1386 -4989,-1386 -1799,0 -3461,461 -4988,1386z"/>
   <path class="fil0" d="M7647 20918c93,0 167,37 228,114 62,76 89,166 89,280 0,109 -27,199 -89,276 -61,75 -135,113 -228,113l-6071 0 0 10910 6071 0c93,0 167,38 228,114 62,71 89,166 89,275 0,114 -27,205 -89,281 -61,76 -135,109 -228,109l-6071 0 0 10914 6071 0c93,0 167,38 228,114 62,71 89,166 89,276 0,113 -27,204 -89,280 -61,76 -135,109 -228,109l-6476 0c-16,-19 -39,-33 -70,-52 -31,-19 -54,-38 -70,-57 0,-19 -7,-29 -19,-29l0 -28c-15,-19 -31,-48 -46,-81 -16,-38 -24,-86 -24,-142l0 -23411c0,-171 62,-289 182,-365l6523 0zm11605 1463c871,1069 1304,2352 1304,3858 0,109 -31,204 -89,276 -62,76 -139,114 -228,114 -89,0 -166,-38 -228,-114 -58,-72 -89,-167 -89,-276 0,-1302 -371,-2404 -1110,-3316 -742,-908 -1640,-1364 -2695,-1364 -1059,0 -1957,456 -2699,1364 -739,912 -1110,2014 -1110,3316 0,1297 371,2399 1110,3312 742,907 1640,1364 2699,1364l159 0c1539,57 2849,764 3928,2128 1079,1364 1620,2993 1620,4889 0,1929 -557,3578 -1674,4951 -1122,1378 -2463,2062 -4033,2062 -1574,0 -2916,-684 -4033,-2062 -1118,-1373 -1678,-3022 -1678,-4951 0,-114 31,-204 89,-280 61,-76 139,-114 228,-114 89,0 166,38 228,114 58,76 89,166 89,280 0,1725 495,3193 1485,4409 990,1217 2184,1825 3592,1825 1404,0 2599,-608 3588,-1825 990,-1216 1485,-2684 1485,-4409 0,-1691 -479,-3140 -1439,-4342 -959,-1207 -2126,-1839 -3499,-1896l-135 0c-1226,0 -2270,-532 -3140,-1601 -870,-1065 -1303,-2353 -1303,-3854 0,-1506 433,-2789 1303,-3858 870,-1069 1914,-1601 3140,-1601 1222,0 2266,532 3135,1601z"/>
   <path class="fil1" style="mask:url(#id0)" d="M1388 15019c1964,56 20634,901 22166,-820 1185,-3569 -10466,-1683 -13387,-2060 -859,-111 -9997,-1069 -10157,-1997 -399,-2301 11767,-1215 13643,-3266 -11257,-3673 -3252,-2399 -2339,-3772 292,-440 -2339,-1992 -2443,-2058 6396,2745 -486,2740 -749,3419 262,492 3449,1228 3449,1228 9136,2702 -6980,3098 -10401,4208 2132,324 9000,1335 9228,1361 2533,287 14485,-1761 14194,2406 -335,4783 -20880,2703 -23204,2657 -294,0 -532,-292 -532,-653 0,-361 238,-653 532,-653z"/>
   <path class="fil2" d="M158397 2368c-163,-332 -991,-712 -1358,-817 -503,-145 -1100,-175 -1728,-1 -675,186 -1196,563 -1615,1029 -337,374 -552,793 -702,1248 -8,27 -23,86 -28,98l-71 129c-308,-285 -976,-497 -1479,-542 -1879,-169 -3454,1276 -3624,3187 -125,1404 578,2632 1559,3268 984,640 905,673 2087,1224 156,72 584,297 725,318 93,63 104,51 207,92l1502 550c581,189 1162,346 1781,510 538,143 406,164 732,-282 527,-723 1613,-2483 1931,-3276 119,-298 279,-556 397,-866 389,-1020 912,-2688 742,-3854 -98,-671 -306,-1147 -700,-1661 -90,-117 -226,-306 -358,-354z"/>
  </g>
 </g>
</svg>
