<?xml version="1.0" encoding="UTF-8"?>
<!DOCTYPE svg PUBLIC "-//W3C//DTD SVG 1.1//EN" "http://www.w3.org/Graphics/SVG/1.1/DTD/svg11.dtd">
<!-- Creator: CorelDRAW X7 -->
<svg xmlns="http://www.w3.org/2000/svg" xml:space="preserve" width="49.0673mm" height="29.4732mm" version="1.1" style="shape-rendering:geometricPrecision; text-rendering:geometricPrecision; image-rendering:optimizeQuality; fill-rule:evenodd; clip-rule:evenodd"
viewBox="0 0 130135 78168"
 xmlns:xlink="http://www.w3.org/1999/xlink">
 <defs>
  <style type="text/css">
   <![CDATA[
    .fil2 {fill:#D92E7C}
    .fil1 {fill:#506C98}
    .fil0 {fill:#506C98;fill-rule:nonzero}
   ]]>
  </style>
   <mask id="id0">
  <linearGradient id="id1" gradientUnits="userSpaceOnUse" x1="17977" y1="41618.5" x2="17850.2" y2="43404.5">
   <stop offset="0" style="stop-opacity:1; stop-color:white"/>
   <stop offset="1" style="stop-opacity:0; stop-color:white"/>
  </linearGradient>
    <rect style="fill:url(#id1)" x="8204" y="36508" width="19419" height="12007"/>
   </mask>
 </defs>
 <g id="Capa_x0020_1">
  <metadata id="CorelCorpID_0Corel-Layer"/>
  <path class="fil0" d="M46506 110c103,0 194,52 266,157 68,104 103,227 103,384 0,175 -35,312 -103,416 -72,104 -163,150 -266,150l-7033 0 0 31421c0,156 -31,279 -103,384 -72,104 -158,156 -267,156 -103,0 -194,-52 -261,-156 -72,-105 -108,-228 -108,-384l0 -31421 -7083 0c-103,0 -193,-46 -266,-150 -67,-104 -103,-241 -103,-416 0,-306 103,-489 315,-541l14909 0zm5314 157c104,0 194,52 266,149 68,104 104,235 104,384l0 32033c0,150 -36,280 -104,377 -72,105 -162,157 -266,157 -104,0 -194,-52 -266,-157 -68,-97 -104,-227 -104,-377l0 -32072c0,-254 90,-416 266,-494l104 0zm12766 -157c108,0 194,52 266,157 72,104 104,227 104,384 0,149 -32,273 -104,377 -72,104 -158,156 -266,156l-7082 0 0 14943 7082 0c108,0 194,52 266,156 72,97 104,228 104,377 0,157 -32,280 -104,384 -72,105 -158,150 -266,150l-7082 0 0 14949 7082 0c108,0 194,52 266,156 72,98 104,228 104,378 0,156 -32,280 -104,384 -72,104 -158,149 -266,149l-7556 0c-18,-26 -45,-45 -81,-71 -36,-26 -63,-52 -82,-78 0,-26 -9,-39 -22,-39l0 -39c-18,-26 -36,-66 -54,-111 -18,-52 -27,-117 -27,-195l0 -32065c0,-235 72,-398 212,-502l7610 0zm17948 -32l28 0c18,0 40,13 76,32l27 0c18,0 46,13 82,39 17,26 35,52 49,79 18,26 36,52 55,78 0,26 9,52 26,71l0 39c0,52 9,91 27,117l0 150 2906 31883 0 72c0,156 -32,279 -104,384 -72,104 -158,156 -267,156 -85,0 -166,-46 -234,-137 -72,-91 -117,-195 -135,-325l-2644 -28942 -4384 28981c0,156 -36,280 -109,384 -67,97 -157,149 -261,149 -108,0 -194,-52 -266,-149 -72,-104 -104,-228 -104,-384l-4389 -28981 -2644 28942c-17,130 -63,234 -130,325 -72,91 -149,137 -239,137 -104,0 -194,-52 -267,-156 -67,-105 -103,-228 -103,-384l0 -72 2909 -32033c32,-279 149,-429 343,-455l27 0c208,0 334,136 370,416l4493 29593 4493 -29515 0 -117 27 -39 0 -39c0,-19 9,-32 22,-32 36,-104 90,-170 163,-196 18,-26 31,-45 49,-71l54 0c18,-26 36,-39 54,-39l0 39zm12266 32c1723,131 3171,1074 4330,2825 1078,1601 1615,3469 1615,5603 0,183 -9,371 -27,573 -72,2239 -690,4133 -1863,5682 -1173,1555 -2576,2356 -4218,2401l-3514 0 0 15483c0,156 -36,280 -103,384 -73,104 -163,149 -266,149 -104,0 -195,-45 -267,-149 -67,-104 -104,-228 -104,-384l0 -32065c0,-254 91,-424 267,-502l4150 0zm-3677 16017l3487 0c1448,-46 2684,-755 3717,-2115 1029,-1361 1579,-3020 1651,-4972 86,-2064 -379,-3860 -1403,-5402 -1019,-1536 -2287,-2356 -3802,-2454l-3650 0 0 14943zm37086 -1102c32,503 48,1011 48,1525 0,2239 -303,4380 -912,6423 -608,2050 -1425,3807 -2444,5285 -1024,1471 -2243,2648 -3663,3527 -1416,872 -2900,1315 -4452,1315 -1552,0 -3036,-443 -4453,-1315 -1421,-879 -2639,-2056 -3662,-3527 -1020,-1478 -1836,-3235 -2445,-5285 -609,-2043 -911,-4184 -911,-6423 0,-2239 302,-4380 911,-6424 609,-2050 1425,-3807 2445,-5284 1023,-1478 2241,-2649 3662,-3528 1417,-878 2901,-1314 4453,-1314 1105,0 2176,221 3213,666l0 1093c-1022,-462 -2092,-692 -3213,-692 -1940,0 -3731,690 -5377,2076 -1651,1386 -2955,3267 -3916,5643 -961,2382 -1439,4965 -1439,7764 0,2798 478,5382 1439,7757 961,2376 2265,4263 3916,5643 1646,1386 3437,2082 5377,2082 1939,0 3730,-696 5376,-2082 1651,-1380 2955,-3267 3916,-5643 956,-2375 1439,-4959 1439,-7757 0,-516 -16,-1024 -49,-1525l741 0z"/>
  <path class="fil0" d="M67495 37599c1356,0 2610,396 3761,1187 67,58 98,137 98,230 0,70 -20,130 -65,178 -44,46 -97,70 -163,70 -53,0 -98,-12 -131,-36 -1009,-695 -2099,-1070 -3272,-1124 -1173,-52 -2282,214 -3325,797 -1043,583 -1882,1426 -2524,2523 -639,1097 -984,2287 -1034,3565 -48,1281 197,2489 742,3622 542,1133 1318,2046 2329,2743 1313,910 2739,1269 4276,1079 1535,-187 2852,-879 3951,-2069 41,-37 91,-55 144,-55 56,0 106,24 156,72 50,46 72,106 72,176 0,60 -14,105 -47,141 -1174,1276 -2580,2013 -4220,2215 -292,21 -576,33 -846,33 -1325,0 -2568,-389 -3730,-1166 -1076,-746 -1901,-1725 -2477,-2939 -531,-1121 -798,-2308 -798,-3559 0,-94 6,-199 17,-318 44,-1359 406,-2625 1089,-3806 643,-1097 1474,-1957 2494,-2577 1020,-619 2113,-946 3275,-982l228 0zm11641 463l17 15c11,0 22,6 33,18l14 0 0 18 17 0 0 18 16 0c11,24 23,48 34,69 0,13 3,22 8,27 6,7 8,16 8,28l0 36 4559 14302 0 87c0,73 -22,130 -64,179 -44,48 -97,69 -164,69 -108,0 -183,-57 -227,-175l-1580 -4994 -5507 0 -1579 4994c-44,118 -119,175 -228,175 -64,0 -119,-21 -164,-69 -42,-49 -64,-106 -64,-179l0 -87 4562 -14320 0 -18c0,-12 3,-21 9,-28 5,-5 8,-14 8,-27l0 -33c8,0 14,-6 14,-18l0 -18c11,0 22,-6 33,-18 12,-12 23,-18 34,-18 11,-25 28,-33 47,-33l164 0zm-2655 9114l5146 0 -2572 -8090 -2574 8090zm10910 -9646c19,12 36,18 47,18 1031,94 1893,540 2583,1344 689,804 1006,1740 953,2816 -33,731 -244,1393 -637,1982 -391,589 -894,1045 -1515,1362 848,179 1560,604 2136,1284 575,677 884,1471 928,2381l0 229c0,1003 -325,1883 -978,2638 -718,816 -1607,1251 -2672,1311l-2444 0c-22,0 -41,-6 -64,-18l-16 0 0 -18 -17 0c-64,-49 -97,-118 -97,-212 0,-48 11,-90 33,-124l0 -7169c-22,-36 -33,-84 -33,-142 0,-48 11,-90 33,-123l0 -7169c-22,-37 -33,-79 -33,-124 0,-97 33,-166 97,-215 22,-12 39,-21 50,-33l17 0c11,0 17,-3 22,-9 6,-6 14,-9 25,-9l1582 0zm-1304 7434l1123 0c890,-24 1654,-353 2288,-984 637,-631 976,-1399 1021,-2308 52,-958 -232,-1789 -857,-2496 -625,-710 -1409,-1093 -2354,-1151l-1221 0 0 6939zm0 7436l2132 0c946,-61 1730,-445 2355,-1151 625,-710 909,-1541 856,-2496 -44,-897 -381,-1661 -1012,-2293 -628,-631 -1390,-967 -2279,-1000l-2052 0 0 6940zm12372 -14837c67,0 120,24 164,72 45,49 64,106 64,179 0,69 -19,126 -64,175 -44,48 -97,73 -164,73l-4364 0 0 6936 4364 0c67,0 120,24 164,72 45,46 64,106 64,176 0,72 -19,130 -64,178 -44,48 -97,69 -164,69l-4364 0 0 6940 4364 0c67,0 120,24 164,72 45,46 64,106 64,175 0,73 -19,130 -64,179 -44,48 -97,69 -164,69l-4656 0c-11,-12 -28,-21 -50,-33 -23,-12 -39,-24 -50,-36 0,-12 -6,-18 -14,-18l0 -18c-11,-13 -22,-31 -33,-52 -11,-24 -17,-54 -17,-91l0 -14884c0,-109 44,-185 130,-233l4690 0zm2212 -33c63,0 119,24 164,69 41,48 64,106 64,178l0 14623 4398 0c67,0 119,24 164,78 42,54 64,109 64,169 0,70 -22,130 -64,176 -45,48 -97,72 -164,72l-4626 0c-64,0 -120,-24 -164,-72 -42,-46 -64,-106 -64,-176l0 -14870c0,-130 55,-214 164,-247l64 0zm6837 0c64,0 119,24 164,69 42,48 64,106 64,178l0 14623 4398 0c67,0 119,24 164,78 42,54 64,109 64,169 0,70 -22,130 -64,176 -45,48 -97,72 -164,72l-4626 0c-64,0 -119,-24 -164,-72 -42,-46 -64,-106 -64,-176l0 -14870c0,-130 55,-214 164,-247l64 0zm16422 592c876,408 1627,951 2258,1637 628,686 1131,1502 1506,2453 376,949 562,1943 562,2982 0,1039 -186,2034 -562,2982 -375,952 -878,1767 -1506,2453 -631,683 -1382,1230 -2258,1638 -872,404 -1787,610 -2743,610 -957,0 -1871,-206 -2744,-610 -876,-408 -1626,-955 -2257,-1638 -629,-686 -1132,-1501 -1507,-2453 -375,-948 -562,-1943 -562,-2982 0,-1039 187,-2033 562,-2982 375,-951 878,-1767 1507,-2453 631,-686 1381,-1229 2257,-1637 873,-408 1787,-610 2744,-610 956,0 1871,202 2743,610zm-6057 849c-1017,643 -1821,1516 -2413,2619 -592,1106 -887,2305 -887,3604 0,1299 295,2499 887,3601 592,1103 1396,1979 2413,2620 1015,643 2118,967 3314,967 1195,0 2299,-324 3314,-967 1017,-641 1820,-1517 2412,-2620 590,-1102 887,-2302 887,-3601 0,-1299 -297,-2498 -887,-3604 -592,-1103 -1395,-1976 -2412,-2619 -1015,-644 -2119,-964 -3314,-964 -1196,0 -2299,320 -3314,964z"/>
  <path class="fil0" d="M397 55573c104,0 194,35 266,106 68,67 104,155 104,258l0 10556 14055 0 0 -10556c0,-209 108,-329 316,-364l54 0c108,0 194,35 266,106 67,67 103,155 103,258l0 10845c18,35 27,57 27,75 0,35 -9,71 -27,107l0 10814c0,106 -36,191 -103,262 -72,66 -149,102 -240,102 -103,0 -198,-36 -279,-102 -77,-71 -117,-156 -117,-262l0 -10557 -14055 0 0 10557c0,106 -36,191 -104,262 -72,66 -154,102 -239,102 -108,0 -198,-36 -279,-102 -77,-71 -118,-156 -118,-262l0 -10766c-18,-48 -27,-102 -27,-155 0,-49 9,-93 27,-128l0 -10815c0,-177 86,-288 262,-341l108 0zm25858 -27c108,0 193,36 265,106 73,72 104,156 104,262 0,102 -31,187 -104,258 -72,71 -157,106 -265,106l-7080 0 0 10189 7080 0c108,0 193,35 265,106 73,67 104,156 104,257 0,107 -31,191 -104,262 -72,71 -157,102 -265,102l-7080 0 0 10193 7080 0c108,0 193,36 265,106 73,67 104,156 104,258 0,107 -31,191 -104,262 -72,71 -157,102 -265,102l-7553 0c-18,-18 -46,-31 -82,-49 -36,-17 -63,-35 -81,-53 0,-18 -9,-27 -22,-27l0 -26c-18,-18 -36,-45 -54,-76 -18,-35 -27,-80 -27,-133l0 -21863c0,-160 72,-271 212,-342l7607 0zm7523 0c1708,89 3143,732 4306,1926 1163,1198 1700,2600 1614,4211 -72,1300 -554,2445 -1456,3435 -897,985 -2016,1628 -3355,1921l6421 10530c72,71 104,151 104,235 0,107 -36,191 -117,262 -77,67 -163,102 -253,102 -176,0 -298,-75 -370,-235l-6551 -10788c-298,36 -465,49 -501,49l-3355 0 0 10557c0,107 -36,191 -108,262 -68,71 -158,102 -262,102 -108,0 -194,-31 -266,-102 -67,-71 -103,-155 -103,-262l0 -10761c-37,-53 -54,-106 -54,-160 0,-48 17,-101 54,-155l0 -10605c-18,-54 -28,-107 -28,-156 0,-124 54,-226 158,-315l27 0c18,-17 45,-26 77,-26l0 -27 4018 0zm-3513 10921l3328 0c1443,-32 2683,-515 3711,-1443 1032,-927 1583,-2058 1655,-3390 67,-1406 -401,-2631 -1416,-3683 -1015,-1047 -2287,-1606 -3820,-1673l-3458 0 0 10189zm26994 -10943l27 0c18,0 41,9 76,22l27 0c19,0 46,9 82,27 18,17 36,35 49,53 19,17 36,36 54,53 0,18 10,36 28,49l0 27c0,35 8,62 26,79l0 103 2904 21739 0 48c0,107 -31,191 -103,262 -73,71 -158,107 -266,107 -86,0 -167,-31 -235,-94 -72,-62 -117,-133 -135,-221l-2643 -19734 -4382 19760c0,107 -37,191 -109,262 -67,67 -157,102 -261,102 -108,0 -194,-35 -266,-102 -72,-71 -104,-155 -104,-262l-4387 -19760 -2643 19734c-18,88 -63,159 -131,221 -71,63 -148,94 -238,94 -104,0 -194,-36 -267,-107 -67,-71 -103,-155 -103,-262l0 -48 2908 -21842c32,-191 149,-292 343,-310l27 0c207,0 334,93 370,284l4491 20177 4491 -20124 0 -80 27 -26 0 -27c0,-13 9,-22 23,-22 36,-71 90,-116 162,-133 18,-18 32,-31 49,-49l54 0c19,-18 37,-27 55,-27l0 27zm22038 843c1420,599 2638,1398 3661,2405 1019,1008 1836,2206 2445,3603 608,1394 910,2853 910,4380 0,1527 -302,2986 -910,4380 -609,1398 -1426,2596 -2445,3603 -1023,1003 -2241,1806 -3661,2405 -1416,595 -2899,897 -4451,897 -1551,0 -3034,-302 -4450,-897 -1421,-599 -2638,-1402 -3662,-2405 -1019,-1007 -1835,-2205 -2444,-3603 -609,-1394 -910,-2853 -910,-4380 0,-1527 301,-2986 910,-4380 609,-1397 1425,-2595 2444,-3603 1024,-1007 2241,-1806 3662,-2405 1416,-599 2899,-896 4450,-896 1552,0 3035,297 4451,896zm-9826 1247c-1650,945 -2953,2228 -3913,3847 -961,1624 -1439,3386 -1439,5294 0,1908 478,3670 1439,5290 960,1619 2263,2906 3913,3847 1646,945 3436,1420 5375,1420 1939,0 3729,-475 5375,-1420 1651,-941 2954,-2228 3914,-3847 956,-1620 1438,-3382 1438,-5290 0,-1908 -482,-3670 -1438,-5294 -960,-1619 -2263,-2902 -3914,-3847 -1646,-945 -3436,-1416 -5375,-1416 -1939,0 -3729,471 -5375,1416zm30006 -701c1015,998 1520,2196 1520,3603 0,102 -36,191 -104,258 -72,70 -162,106 -266,106 -103,0 -194,-36 -266,-106 -68,-67 -104,-156 -104,-258 0,-1216 -432,-2245 -1294,-3097 -866,-848 -1912,-1274 -3143,-1274 -1235,0 -2281,426 -3147,1274 -862,852 -1294,1881 -1294,3097 0,1211 432,2241 1294,3093 866,847 1912,1273 3147,1273l185 0c1795,54 3323,715 4581,1988 1259,1274 1890,2796 1890,4567 0,1801 -649,3341 -1952,4623 -1308,1287 -2873,1926 -4704,1926 -1835,0 -3400,-639 -4703,-1926 -1303,-1282 -1957,-2822 -1957,-4623 0,-107 36,-191 104,-262 72,-71 162,-107 266,-107 104,0 194,36 266,107 68,71 104,155 104,262 0,1610 577,2982 1731,4118 1155,1135 2548,1703 4189,1703 1637,0 3030,-568 4185,-1703 1154,-1136 1731,-2508 1731,-4118 0,-1580 -559,-2934 -1677,-4056 -1118,-1127 -2480,-1718 -4081,-1771l-158 0c-1429,0 -2647,-497 -3661,-1495 -1015,-994 -1520,-2197 -1520,-3599 0,-1407 505,-2605 1520,-3603 1014,-999 2232,-1496 3661,-1496 1425,0 2643,497 3657,1496zm21763 -546c1421,599 2638,1398 3662,2405 1019,1008 1835,2206 2444,3603 608,1394 910,2853 910,4380 0,1527 -302,2986 -910,4380 -609,1398 -1425,2596 -2444,3603 -1024,1003 -2241,1806 -3662,2405 -1416,595 -2899,897 -4450,897 -1552,0 -3035,-302 -4451,-897 -1420,-599 -2638,-1402 -3661,-2405 -1019,-1007 -1836,-2205 -2444,-3603 -609,-1394 -911,-2853 -911,-4380 0,-1527 302,-2986 911,-4380 608,-1397 1425,-2595 2444,-3603 1023,-1007 2241,-1806 3661,-2405 1416,-599 2899,-896 4451,-896 1551,0 3034,297 4450,896zm-9825 1247c-1651,945 -2954,2228 -3914,3847 -961,1624 -1438,3386 -1438,5294 0,1908 477,3670 1438,5290 960,1619 2263,2906 3914,3847 1646,945 3436,1420 5375,1420 1939,0 3729,-475 5375,-1420 1650,-941 2953,-2228 3913,-3847 956,-1620 1439,-3382 1439,-5290 0,-1908 -483,-3670 -1439,-5294 -960,-1619 -2263,-2902 -3913,-3847 -1646,-945 -3436,-1416 -5375,-1416 -1939,0 -3729,471 -5375,1416z"/>
  <path class="fil0" d="M9550 531c129,0 230,50 316,149 85,99 122,218 122,367 0,143 -37,261 -122,361 -86,99 -187,149 -316,149l-8384 0 0 14281 8384 0c129,0 230,50 316,149 85,94 122,218 122,361 0,149 -37,267 -122,367 -86,99 -187,143 -316,143l-8384 0 0 14287 8384 0c129,0 230,50 316,149 85,93 122,218 122,361 0,149 -37,267 -122,367 -86,100 -187,143 -316,143l-8945 0c-21,-25 -53,-43 -96,-68 -42,-25 -74,-50 -96,-75 0,-25 -10,-38 -27,-38l0 -37c-21,-25 -42,-62 -63,-105 -22,-50 -32,-112 -32,-187l0 -30645c0,-224 85,-380 250,-479l9009 0zm16028 1916c1202,1399 1800,3078 1800,5050 0,143 -43,268 -123,361 -85,99 -192,149 -315,149 -123,0 -229,-50 -315,-149 -80,-93 -123,-218 -123,-361 0,-1704 -512,-3147 -1532,-4341 -1026,-1188 -2264,-1785 -3722,-1785 -1464,0 -2703,597 -3728,1785 -1020,1194 -1532,2637 -1532,4341 0,1698 512,3141 1532,4335 1025,1188 2264,1785 3728,1785l218 0c2126,75 3936,1002 5426,2787 1490,1785 2238,3918 2238,6400 0,2525 -769,4684 -2313,6481 -1548,1804 -3401,2699 -5569,2699 -2174,0 -4027,-895 -5570,-2699 -1543,-1797 -2318,-3956 -2318,-6481 0,-149 43,-267 123,-367 85,-99 192,-149 315,-149 123,0 230,50 315,149 80,100 123,218 123,367 0,2258 683,4180 2050,5772 1368,1593 3018,2388 4962,2388 1938,0 3588,-795 4955,-2388 1368,-1592 2051,-3514 2051,-5772 0,-2214 -662,-4111 -1987,-5685 -1324,-1580 -2937,-2407 -4832,-2482l-187 0c-1693,0 -3135,-696 -4337,-2096 -1201,-1393 -1799,-3078 -1799,-5044 0,-1972 598,-3651 1799,-5050 1202,-1400 2644,-2096 4337,-2096 1687,0 3129,696 4330,2096z"/>
  <path class="fil1" style="mask:url(#id0)" d="M9535 46943c1508,41 15845,656 17022,-597 909,-2597 -8038,-1225 -10280,-1499 -660,-81 -7677,-778 -7800,-1454 -306,-1674 9036,-884 10477,-2377 -8645,-2673 -2497,-1746 -1797,-2745 225,-321 -1796,-1450 -1876,-1498 4912,1998 -373,1994 -575,2488 202,359 2649,894 2649,894 7016,1967 -5361,2255 -7988,3063 1638,236 6912,972 7087,991 1945,209 11123,-1282 10899,1751 -257,3481 -16034,1968 -17818,1934 -226,0 -409,-213 -409,-475 0,-263 183,-476 409,-476z"/>
  <path class="fil2" d="M129297 2164c-126,-241 -761,-518 -1042,-594 -387,-105 -846,-127 -1328,-1 -518,136 -918,410 -1240,749 -259,273 -424,577 -539,909 -7,19 -18,62 -21,71l-55 94c-237,-208 -750,-362 -1136,-395 -1442,-123 -2652,929 -2783,2320 -96,1021 444,1915 1197,2379 756,465 695,489 1603,890 120,53 448,217 557,232 71,46 79,37 159,67l1153 400c446,138 892,252 1368,372 413,104 312,119 562,-206 404,-526 1238,-1807 1483,-2385 92,-216 214,-404 305,-630 298,-742 700,-1956 569,-2805 -75,-488 -235,-835 -537,-1209 -69,-85 -174,-222 -275,-258z"/>
  <g>
   <path class="fil0" d="M42404 37875c254,12 501,59 737,142 248,86 485,212 711,375l0 1c225,164 427,356 603,575 176,220 329,467 456,740 127,273 223,559 287,856 63,296 95,604 95,920l0 1c-2,318 -37,625 -103,919 -65,293 -164,576 -294,846 -131,270 -285,514 -461,729 -177,216 -379,407 -604,569l0 0c-226,162 -464,287 -711,371 -248,84 -508,129 -776,135l-3 0 -1595 0 -118 0 0 -8 -21 0 0 -71c-11,-15 -19,-31 -27,-47l0 0c-14,-32 -21,-67 -21,-104 0,-18 3,-38 9,-57l6 -16 0 -6574 -5 -15c-6,-19 -10,-38 -10,-58 0,-48 12,-92 35,-129l0 -1c22,-35 52,-62 90,-83l23 -26 53 0 1581 0 54 0 9 10zm-1835 288l0 -1 0 1zm433 6432l1339 0 0 0c228,-6 447,-44 656,-115 210,-72 412,-177 604,-315 193,-139 366,-304 519,-491 153,-188 286,-401 398,-637l0 -1c114,-238 200,-487 257,-744 58,-259 88,-528 90,-808l0 0c0,-282 -28,-555 -85,-817 -57,-262 -142,-515 -254,-755 -113,-241 -247,-457 -399,-648 -153,-190 -327,-356 -520,-497l0 1c-192,-140 -395,-248 -606,-321 -209,-73 -430,-114 -660,-122l0 1 -1339 0 0 6269zm-228 1751c31,0 60,7 88,20l1 0c25,13 49,31 69,54l4 4c15,20 29,43 38,70l0 1c9,26 14,53 14,82l0 5063 0 0c1,192 44,371 125,536 82,167 206,323 370,465 340,294 751,439 1229,434l1 0c479,0 887,-148 1222,-442 162,-144 283,-301 362,-471 78,-168 116,-350 114,-546l0 -1 0 -5038c0,-55 13,-103 39,-142 30,-45 74,-74 130,-86l13 -3 12 0 19 0c32,0 62,7 90,20 25,13 48,30 68,52l5 6c15,20 29,43 38,70l1 1c8,26 13,53 13,82l0 5158c0,20 -3,38 -7,55l-2 5 -3 8 -1 3 -1 6c-24,228 -89,440 -192,635 -103,194 -245,371 -425,530 -205,183 -434,321 -684,415 -249,92 -519,140 -810,143l-1 0 -27 0c-284,0 -549,-45 -795,-134 -246,-89 -472,-222 -677,-399 -188,-161 -335,-342 -442,-542 -101,-188 -165,-394 -193,-614 -7,-16 -11,-35 -12,-58l-3 -9 -2 -14 -2 -17 -1 -8 0 -5 0 -5166c0,-50 13,-95 38,-132l0 1c25,-39 62,-68 110,-85l20 -7 19 0 28 0z"/>
  </g>
  <g>
   <path class="fil0" d="M48564 37905c31,0 62,7 89,20 26,13 49,31 68,53l3 3c19,22 33,47 42,74l0 1c8,26 12,52 12,80 0,27 -4,54 -13,80l1 0c-9,28 -24,54 -43,76l-1 1c-20,23 -43,41 -69,53l-2 1c-27,13 -57,19 -87,19l-1725 0 0 2904 1725 0c30,0 60,6 87,19l2 1c26,12 47,29 66,50l2 2 0 0c20,22 34,47 44,75l0 0c9,26 13,55 13,83 0,28 -4,56 -12,81 -9,27 -24,53 -43,76l-2 1c-20,24 -44,41 -70,53l-3 1c-26,11 -55,18 -84,18l-1725 0 0 2904 1725 0c30,0 60,7 87,19l2 1c26,12 47,30 66,50 21,23 37,50 46,77 9,27 13,55 13,83 0,29 -4,56 -12,81 -9,28 -24,54 -43,76l-1 1c-20,24 -44,41 -71,54l-3 1c-26,11 -55,17 -84,17l-1966 0 -42 0 -33 -27 -4 -3 -5 -3 -3 -2 -7 -5 -72 0 0 -94 -6 -11 -4 -12 -5 -19 -3 -12 -1 -10 -2 -23 0 -9 0 -6736c0,-44 10,-84 28,-118 19,-36 47,-66 83,-87l30 -18 32 0 1980 0zm-22 238l0 -1 0 1 0 0zm-1823 8171l12 0 36 47 13 18 5 6 14 21 8 11 25 31 0 18 3430 5981 0 -5919c0,-53 13,-100 40,-138 27,-41 67,-70 117,-86l18 -6 19 0 20 0c29,0 58,7 85,20l2 1c23,12 43,28 62,47l0 0c22,22 39,47 49,74l0 1 1 1c10,27 15,56 15,86l0 6745c0,28 -5,57 -14,83 -9,27 -22,52 -40,73l-4 4c-20,22 -43,39 -69,51 -27,13 -57,19 -87,19 -25,0 -50,-6 -74,-16l-3 -1c-18,-9 -37,-21 -53,-35 -18,-14 -33,-33 -47,-53l-1 -2c-10,-15 -18,-32 -25,-50l-3434 -6005 0 5924c0,29 -6,57 -16,83l-1 2c-9,22 -23,44 -40,65l-5 6c-20,22 -42,39 -66,52 -28,14 -59,22 -90,22 -31,0 -61,-8 -90,-23l-1 -1c-24,-13 -47,-32 -66,-55l-5 -7c-14,-20 -26,-42 -34,-65l-1 -1c-8,-24 -13,-51 -13,-78l0 -6785 0 -118 47 0 0 -25 68 -20 23 -19 42 0 61 0 53 0 14 16zm80 92l0 1 0 -1z"/>
  </g>
 </g>
</svg>
