<?xml version="1.0" encoding="UTF-8"?>
<!DOCTYPE svg PUBLIC "-//W3C//DTD SVG 1.1//EN" "http://www.w3.org/Graphics/SVG/1.1/DTD/svg11.dtd">
<!-- Creator: CorelDRAW X7 -->
<svg xmlns="http://www.w3.org/2000/svg" xml:space="preserve" width="33.073mm" height="3.7888mm" version="1.1" style="shape-rendering:geometricPrecision; text-rendering:geometricPrecision; image-rendering:optimizeQuality; fill-rule:evenodd; clip-rule:evenodd"
viewBox="0 0 3551 407"
 xmlns:xlink="http://www.w3.org/1999/xlink">
 <defs>
  <style type="text/css">
   <![CDATA[
    .fil1 {fill:#E8D8DE}
    .fil0 {fill:#D41914}
    .fil2 {fill:#F41A16}
    .fil3 {fill:#FEFEFE}
   ]]>
  </style>
 </defs>
 <g id="Capa_x0020_1">
  <metadata id="CorelCorpID_0Corel-Layer"/>
  <path class="fil0" d="M0 219l355 0 0 140c0,26 -21,48 -48,48l-259 0c-26,0 -48,-22 -48,-48l0 -140z"/>
  <path class="fil1" d="M355 219l355 0 0 140c0,26 -21,48 -48,48l-259 0c-26,0 -48,-22 -48,-48l0 -140z"/>
  <path class="fil0" d="M710 219l355 0 0 140c0,26 -21,48 -48,48l-259 0c-26,0 -48,-22 -48,-48l0 -140z"/>
  <path class="fil0" d="M1420 219l356 0 0 140c0,26 -22,48 -48,48l-260 0c-26,0 -48,-22 -48,-48l0 -140z"/>
  <path class="fil0" d="M2131 219l355 0 0 140c0,26 -22,48 -48,48l-259 0c-27,0 -48,-22 -48,-48l0 -140z"/>
  <path class="fil0" d="M2841 219l355 0 0 140c0,26 -22,48 -48,48l-259 0c-26,0 -48,-22 -48,-48l0 -140z"/>
  <path class="fil1" d="M1065 219l355 0 0 140c0,26 -21,48 -47,48l-260 0c-26,0 -48,-22 -48,-48l0 -140z"/>
  <path class="fil1" d="M1776 219l355 0 0 140c0,26 -22,48 -48,48l-259 0c-27,0 -48,-22 -48,-48l0 -140z"/>
  <path class="fil1" d="M2486 219l355 0 0 140c0,26 -22,48 -48,48l-259 0c-27,0 -48,-22 -48,-48l0 -140z"/>
  <path class="fil1" d="M3196 219l355 0 0 140c0,26 -21,48 -48,48l-259 0c-26,0 -48,-22 -48,-48l0 -140z"/>
  <g id="_2746485061744">
   <path class="fil2" d="M0 233c118,0 237,0 355,0 23,-39 78,-78 149,-116 72,-39 128,-78 150,-117 -94,0 -187,0 -280,0 -28,39 -97,78 -187,117 -90,38 -159,77 -187,116z"/>
   <path class="fil3" d="M355 233c118,0 237,0 355,0 17,-39 58,-78 112,-116 54,-39 96,-78 112,-117 -93,0 -186,0 -280,0 -22,39 -78,78 -150,117 -71,38 -126,77 -149,116z"/>
   <path class="fil2" d="M710 233c118,0 237,0 355,0 12,-39 39,-78 75,-116 36,-39 63,-78 74,-117 -93,0 -186,0 -280,0 -16,39 -58,78 -112,117 -54,38 -95,77 -112,116z"/>
   <path class="fil2" d="M1420 233c119,0 237,0 356,0 0,-39 0,-78 0,-116 0,-39 0,-78 -1,-117 -94,0 -187,0 -280,0 -6,39 -19,78 -37,117 -18,38 -32,77 -38,116z"/>
   <path class="fil2" d="M2131 233c118,0 236,0 355,0 -12,-39 -39,-78 -75,-116 -36,-39 -64,-78 -75,-117 -94,0 -187,0 -281,0 6,39 20,78 38,117 18,38 32,77 38,116z"/>
   <path class="fil2" d="M2841 233c118,0 236,0 355,0 -23,-39 -78,-78 -149,-116 -72,-39 -128,-78 -151,-117 -93,0 -186,0 -280,0 17,39 59,78 113,117 53,38 95,77 112,116z"/>
   <path class="fil3" d="M1065 233c119,0 237,0 355,0 6,-39 20,-78 38,-116 18,-39 31,-78 37,-117 -94,0 -187,0 -281,0 -11,39 -38,78 -74,117 -36,38 -63,77 -75,116z"/>
   <path class="fil3" d="M1776 233c118,0 236,0 355,0 -6,-39 -20,-78 -38,-116 -18,-39 -32,-78 -38,-117 -93,0 -186,0 -280,0 1,39 1,78 1,117 0,38 0,77 0,116z"/>
   <path class="fil3" d="M2486 233c118,0 236,0 355,0 -17,-39 -59,-78 -112,-116 -54,-39 -96,-78 -113,-117 -94,0 -187,0 -280,0 11,39 39,78 75,117 36,38 63,77 75,116z"/>
   <path class="fil3" d="M3196 233c118,0 237,0 355,0 -28,-39 -97,-78 -187,-116 -90,-39 -159,-78 -187,-117 -94,0 -187,0 -281,0 23,39 79,78 151,117 71,38 126,77 149,116z"/>
  </g>
 </g>
</svg>
