<?xml version="1.0" encoding="UTF-8"?>
<!DOCTYPE svg PUBLIC "-//W3C//DTD SVG 1.1//EN" "http://www.w3.org/Graphics/SVG/1.1/DTD/svg11.dtd">
<!-- Creator: CorelDRAW X7 -->
<svg xmlns="http://www.w3.org/2000/svg" xml:space="preserve" width="5.5152mm" height="5.744mm" version="1.1" style="shape-rendering:geometricPrecision; text-rendering:geometricPrecision; image-rendering:optimizeQuality; fill-rule:evenodd; clip-rule:evenodd"
viewBox="0 0 6692 6970"
 xmlns:xlink="http://www.w3.org/1999/xlink">
 <defs>
  <style type="text/css">
   <![CDATA[
    .fil0 {fill:#486D97}
   ]]>
  </style>
 </defs>
 <g id="Capa_x0020_1">
  <metadata id="CorelCorpID_0Corel-Layer"/>
  <path class="fil0" d="M2505 3214c0,236 511,746 757,913 81,55 435,279 538,232 107,-50 310,-443 393,-443 125,0 514,221 645,290 195,101 190,59 190,227 0,522 -501,766 -892,706 -285,-44 -649,-177 -897,-305 -235,-123 -644,-429 -795,-633l-184 -215c-39,-47 -59,-73 -95,-123 -315,-438 -750,-1093 -363,-1694 159,-247 252,-286 490,-286 197,0 234,190 332,449 27,71 49,133 77,198 118,277 118,293 -139,595 -28,32 -57,43 -57,89zm-2505 166c0,630 62,977 289,1529 29,70 43,113 78,177 44,81 80,96 65,183 -42,227 -429,1573 -432,1696 99,-2 724,-165 870,-203 98,-26 783,-203 871,-203 17,0 284,129 322,145 119,51 234,89 355,130 945,315 2140,57 2884,-526 64,-50 112,-90 170,-137l322 -312c142,-184 277,-325 406,-558 73,-133 152,-282 213,-424 692,-1604 48,-3566 -1408,-4411 -1211,-702 -2489,-584 -3588,175l-258 212c-161,161 -111,76 -312,323 -30,37 -45,46 -76,87 -52,70 -87,116 -139,187 -312,431 -632,1184 -632,1930z"/>
 </g>
</svg>
