<?xml version="1.0" encoding="UTF-8"?>
<!DOCTYPE svg PUBLIC "-//W3C//DTD SVG 1.1//EN" "http://www.w3.org/Graphics/SVG/1.1/DTD/svg11.dtd">
<!-- Creator: CorelDRAW X7 -->
<svg xmlns="http://www.w3.org/2000/svg" xml:space="preserve" width="7.8767mm" height="7.8867mm" version="1.1" style="shape-rendering:geometricPrecision; text-rendering:geometricPrecision; image-rendering:optimizeQuality; fill-rule:evenodd; clip-rule:evenodd"
viewBox="0 0 1440 1442"
 xmlns:xlink="http://www.w3.org/1999/xlink">
 <defs>
  <style type="text/css">
   <![CDATA[
    .fil0 {fill:#373435}
   ]]>
  </style>
 </defs>
 <g id="Capa_x0020_1">
  <metadata id="CorelCorpID_0Corel-Layer"/>
  <path class="fil0" d="M539 665c0,49 110,154 163,189 17,11 94,57 116,48 23,-11 66,-92 84,-92 27,0 111,46 139,60 42,21 41,12 41,47 0,108 -108,159 -192,146 -61,-9 -140,-36 -193,-63 -51,-25 -139,-89 -171,-131l-40 -44c-8,-10 -12,-15 -20,-26 -68,-90 -162,-226 -78,-350 34,-51 54,-59 105,-59 43,0 50,39 72,92 6,15 10,28 16,41 26,58 26,61 -30,124 -6,6 -12,8 -12,18zm-539 34c0,131 13,202 62,317 6,14 10,23 17,36 9,17 17,20 14,38 -9,47 -92,325 -93,351 21,-1 156,-34 187,-42 21,-5 169,-42 188,-42 3,0 61,26 69,30 26,10 50,18 76,27 204,65 461,12 621,-109 14,-10 24,-19 37,-28l69 -65c30,-38 59,-67 87,-115 16,-28 33,-59 46,-88 149,-332 10,-738 -303,-913 -260,-145 -536,-120 -772,37l-56 43c-34,34 -23,16 -67,67 -6,8 -9,10 -16,18 -11,15 -19,24 -30,39 -67,89 -136,245 -136,399z"/>
 </g>
</svg>
