<?xml version="1.0" encoding="UTF-8"?>
<!DOCTYPE svg PUBLIC "-//W3C//DTD SVG 1.1//EN" "http://www.w3.org/Graphics/SVG/1.1/DTD/svg11.dtd">
<!-- Creator: CorelDRAW X7 -->
<svg xmlns="http://www.w3.org/2000/svg" xml:space="preserve" width="7.8758mm" height="7.8865mm" version="1.1" style="shape-rendering:geometricPrecision; text-rendering:geometricPrecision; image-rendering:optimizeQuality; fill-rule:evenodd; clip-rule:evenodd"
viewBox="0 0 730 731"
 xmlns:xlink="http://www.w3.org/1999/xlink">
 <defs>
  <style type="text/css">
   <![CDATA[
    .fil0 {fill:#FEFEFE}
   ]]>
  </style>
 </defs>
 <g id="Capa_x0020_1">
  <metadata id="CorelCorpID_0Corel-Layer"/>
  <path id="whatsapp.svg" class="fil0" d="M273 337c0,25 56,78 83,96 8,5 47,29 59,24 11,-5 33,-47 42,-47 14,0 56,24 71,31 21,11 20,6 20,24 0,54 -54,80 -97,74 -31,-5 -71,-19 -98,-32 -26,-13 -70,-45 -86,-67l-21 -22c-4,-5 -6,-7 -10,-13 -34,-46 -82,-115 -39,-177 17,-26 27,-30 53,-30 22,0 25,19 36,46 3,8 5,14 8,21 14,29 14,31 -15,63 -3,3 -6,4 -6,9l0 0zm-273 17c0,67 7,103 31,161 3,7 5,12 9,18 5,9 9,10 7,19 -4,24 -46,165 -47,178 11,0 79,-17 95,-21 10,-3 85,-21 95,-21 2,0 31,13 35,15 13,5 25,9 39,14 103,33 233,6 314,-56 7,-5 12,-9 19,-14l35 -33c15,-19 30,-34 44,-58 8,-14 17,-30 23,-45 76,-168 6,-374 -153,-462 -132,-74 -272,-61 -391,18l-29 22c-17,17 -11,8 -34,34 -3,4 -4,5 -8,9 -5,8 -9,12 -15,20 -34,45 -69,124 -69,202l0 0z"/>
 </g>
</svg>
